<svg width="63" height="67" viewBox="0 0 63 67" fill="none" xmlns="http://www.w3.org/2000/svg">
<path d="M46.1865 30.518C50.3926 30.518 53.8047 26.8918 53.8047 22.4187C53.8047 17.9455 50.3926 14.3193 46.1865 14.3193" stroke="white" stroke-width="1.5" stroke-linecap="round" stroke-linejoin="round"/>
<path d="M49.689 39.3198C50.945 39.4119 52.1939 39.6013 53.4235 39.8956C55.1319 40.2513 57.1868 40.996 57.9183 42.6261C58.3852 43.6702 58.3852 44.8857 57.9183 45.9324C57.1892 47.5625 55.1319 48.3046 53.4235 48.6782" stroke="white" stroke-width="1.5" stroke-linecap="round" stroke-linejoin="round"/>
<path d="M16.5113 30.518C12.3051 30.518 8.89307 26.8918 8.89307 22.4187C8.89307 17.9455 12.3051 14.3193 16.5113 14.3193" stroke="white" stroke-width="1.5" stroke-linecap="round" stroke-linejoin="round"/>
<path d="M13.0091 39.3198C11.753 39.4119 10.5042 39.6013 9.27456 39.8956C7.56612 40.2513 5.51118 40.996 4.78209 42.6261C4.31287 43.6702 4.31287 44.8857 4.78209 45.9324C5.50878 47.5625 7.56612 48.3046 9.27456 48.6782" stroke="white" stroke-width="1.5" stroke-linecap="round" stroke-linejoin="round"/>
<path fill-rule="evenodd" clip-rule="evenodd" d="M31.337 41.064C39.8599 41.064 47.1412 42.4356 47.1412 47.9247C47.1412 53.4113 39.908 54.8341 31.337 54.8341C22.8116 54.8341 15.5327 53.4624 15.5327 47.9733C15.5327 42.4842 22.7659 41.064 31.337 41.064Z" stroke="white" stroke-width="1.5" stroke-linecap="round" stroke-linejoin="round"/>
<path fill-rule="evenodd" clip-rule="evenodd" d="M31.3369 33.2344C25.7159 33.2344 21.209 28.4413 21.209 22.4609C21.209 16.483 25.7159 11.6899 31.3369 11.6899C36.9579 11.6899 41.4648 16.483 41.4648 22.4609C41.4648 28.4413 36.9579 33.2344 31.3369 33.2344Z" stroke="white" stroke-width="1.5" stroke-linecap="round" stroke-linejoin="round"/>
</svg>
