<svg width="187" height="187" viewBox="0 0 187 187" fill="none" xmlns="http://www.w3.org/2000/svg">
<rect width="145.1" height="143.725" rx="9" fill="#F9F7CC"/>
<g filter="url(#filter0_b)">
<path d="M108.277 121.15C108.442 114.252 113.968 108.684 120.865 108.467L138.612 107.908C150.362 107.538 156.529 121.715 148.248 130.059L130.077 148.369C121.796 156.713 107.573 150.654 107.854 138.901L108.277 121.15Z" fill="#F9F7CC"/>
<path d="M120.88 108.967L138.628 108.408C149.926 108.052 155.856 121.684 147.894 129.707L129.722 148.017C121.76 156.04 108.084 150.214 108.354 138.913L108.777 121.162C108.935 114.529 114.249 109.175 120.88 108.967Z" stroke="#E7E7E7"/>
</g>
<rect x="102.688" y="145.559" width="58.3311" height="6.0777" transform="rotate(-43.2026 102.688 145.559)" fill="#F8FBFF"/>
<rect x="104.582" y="143.855" width="55.392" height="21.2832" rx="10.6416" transform="rotate(-43.2026 104.582 143.855)" fill="#F8FBFF"/>
<rect x="122" y="131.889" width="17.3666" height="21.2832" rx="8.68329" transform="rotate(-43.2026 122 131.889)" fill="#F8FBFF"/>
<defs>
<filter id="filter0_b" x="89.7852" y="89.9021" width="71.6387" height="71.7126" filterUnits="userSpaceOnUse" color-interpolation-filters="sRGB">
<feFlood flood-opacity="0" result="BackgroundImageFix"/>
<feGaussianBlur in="BackgroundImage" stdDeviation="2"/>
<feComposite in2="SourceAlpha" operator="in" result="effect1_backgroundBlur"/>
<feBlend mode="normal" in="SourceGraphic" in2="effect1_backgroundBlur" result="shape"/>
</filter>
</defs>
</svg>
