<svg id="SvgjsSvg1001" width="288" height="288" xmlns="http://www.w3.org/2000/svg" version="1.1" xmlns:xlink="http://www.w3.org/1999/xlink" xmlns:svgjs="http://svgjs.com/svgjs"><defs id="SvgjsDefs1002"></defs><g id="SvgjsG1008" transform="matrix(1,0,0,1,0,0)"><svg xmlns="http://www.w3.org/2000/svg" enable-background="new 0 0 100 100" viewBox="0 0 100 125" width="288" height="288"><circle cx="29.709" cy="21.319" r="6.319" fill="#434343" class="color000 svgShape"></circle><circle cx="70.291" cy="21.319" r="6.319" fill="#434343" class="color000 svgShape"></circle><path d="M93.377,15.139c-1.241-0.439-2.603,0.273-3.106,1.489l-3.63,8.764l-9.14,3.219H61.944c-0.671,0-1.311,0.136-1.892,0.382  c-0.582,0.246-1.105,0.602-1.545,1.042c-0.44,0.44-0.796,0.964-1.042,1.545L50,49.603L42.535,31.58  c-0.246-0.582-0.602-1.105-1.042-1.545c-0.44-0.44-0.964-0.796-1.545-1.042c-0.582-0.246-1.221-0.382-1.892-0.382H22.5l-9.14-3.219  l-3.63-8.764c-0.504-1.216-1.866-1.929-3.106-1.489c-1.323,0.469-1.968,1.942-1.437,3.223l3.919,9.462  c0.176,0.426,0.425,0.818,0.734,1.159c0.345,0.38,0.76,0.69,1.223,0.914L22.5,35.417v22.361v23.646c0,2.091,1.795,3.763,3.928,3.56  c1.859-0.177,3.225-1.845,3.225-3.713V57.778h1.111v23.646c0,1.975,1.601,3.576,3.576,3.576h0.139c1.975,0,3.576-1.601,3.576-3.576  V57.778V35.417l0.732-0.18l7.627,18.413c0.53,1.28,2.028,1.866,3.295,1.262c0.105-0.05,0.197-0.115,0.29-0.178  c0.093,0.063,0.185,0.128,0.29,0.178c1.267,0.604,2.765,0.018,3.295-1.262l7.627-18.413l0.732,0.18v22.361v23.646  c0,1.975,1.601,3.576,3.576,3.576h0.139c1.975,0,3.576-1.601,3.576-3.576V57.778h1.111V81.27c0,1.868,1.366,3.536,3.225,3.713  c2.133,0.203,3.928-1.468,3.928-3.56V57.778V35.417l11.438-5.521c0.463-0.223,0.878-0.533,1.223-0.914  c0.31-0.341,0.558-0.733,0.734-1.159l3.919-9.462C95.345,17.081,94.7,15.607,93.377,15.139z" fill="#434343" class="color000 svgShape"></path></svg></g></svg>