<svg width="49" height="49" viewBox="0 0 49 49" fill="none" xmlns="http://www.w3.org/2000/svg">
<ellipse cx="23.6404" cy="14.8592" rx="9.75515" ry="9.75515" stroke="white" stroke-width="1.5" stroke-linecap="round" stroke-linejoin="round"/>
<path fill-rule="evenodd" clip-rule="evenodd" d="M8.16654 38.1816C8.16392 37.4958 8.31729 36.8184 8.61505 36.2007C9.54945 34.3319 12.1845 33.3414 14.371 32.8929C15.9479 32.5564 17.5465 32.3316 19.1551 32.2201C22.1332 31.9585 25.1285 31.9585 28.1067 32.2201C29.7151 32.3329 31.3137 32.5577 32.8908 32.8929C35.0773 33.3414 37.7123 34.2384 38.6467 36.2007C39.2455 37.46 39.2455 38.9219 38.6467 40.1812C37.7123 42.1435 35.0773 43.0405 32.8908 43.4703C31.3157 43.8208 29.7165 44.0519 28.1067 44.1618C25.6827 44.3673 23.2474 44.4047 20.8183 44.2739C20.2577 44.2739 19.7157 44.2739 19.1551 44.1618C17.5513 44.0533 15.9582 43.8221 14.3896 43.4703C12.1845 43.0405 9.56814 42.1435 8.61505 40.1812C8.31881 39.5563 8.16559 38.8732 8.16654 38.1816Z" stroke="white" stroke-width="1.5" stroke-linecap="round" stroke-linejoin="round"/>
</svg>
