<svg width="664" height="350" viewBox="0 0 664 350" fill="none" xmlns="http://www.w3.org/2000/svg">
<path d="M76.2728 19.437H134.655C136.034 19.437 137.151 20.5539 137.151 21.9331V34.6724C137.151 36.0517 136.034 37.1685 134.655 37.1685H56.3218" stroke="#EECFF8" stroke-width="0.385417" stroke-miterlimit="10"/>
<path d="M219.568 37.3424H141.239C139.86 37.3424 138.743 36.2255 138.743 34.8463V22.1069C138.743 20.7277 139.86 19.6108 141.239 19.6108H219.572C220.951 19.6108 222.068 20.7277 222.068 22.1069V34.8463C222.064 36.2255 220.947 37.3424 219.568 37.3424Z" stroke="#EECFF8" stroke-width="0.385417" stroke-miterlimit="10"/>
<path d="M94.9402 38.938C96.3194 38.938 97.4363 40.0548 97.4363 41.4341V54.1734C97.4363 55.5526 96.3194 56.6695 94.9402 56.6695H24.4077" stroke="#EECFF8" stroke-width="0.385417" stroke-miterlimit="10"/>
<path d="M179.858 56.8433H101.528C100.149 56.8433 99.0322 55.7265 99.0322 54.3472V41.6079C99.0322 40.2287 100.149 39.1118 101.528 39.1118H179.861C181.24 39.1118 182.357 40.2287 182.357 41.6079V54.3472C182.354 55.7265 181.237 56.8433 179.858 56.8433Z" stroke="#EECFF8" stroke-width="0.385417" stroke-miterlimit="10"/>
<path d="M33.0061 78.6484H98.1316C99.5108 78.6484 100.628 79.7653 100.628 81.1445V93.8839C100.628 95.2631 99.5108 96.38 98.1316 96.38H29.7832" stroke="#EECFF8" stroke-width="0.385417" stroke-miterlimit="10"/>
<path d="M190.423 96.5538H184.974C183.594 96.5538 182.478 95.4369 182.478 94.0577V81.3184C182.478 79.9391 183.594 78.8223 184.974 78.8223H205.4" stroke="#EECFF8" stroke-width="0.385417" stroke-miterlimit="10"/>
<path d="M162.622 96.5538H104.719C103.34 96.5538 102.223 95.4369 102.223 94.0577V81.3184C102.223 79.9391 103.34 78.8223 104.719 78.8223H177.602" stroke="#EECFF8" stroke-width="0.385417" stroke-miterlimit="10"/>
<path d="M52.8611 177.925H117.987C119.366 177.925 120.483 179.042 120.483 180.421V193.161C120.483 194.54 119.366 195.657 117.987 195.657H49.6382" stroke="#EECFF8" stroke-width="0.385417" stroke-miterlimit="10"/>
<path d="M98.0355 215.863H36.874" stroke="#EECFF8" stroke-width="0.385417" stroke-miterlimit="10"/>
<path d="M23.7876 238.555H43.3664" stroke="#EECFF8" stroke-width="0.385417" stroke-miterlimit="10"/>
<path d="M98.5745 276.493H49.6382" stroke="#EECFF8" stroke-width="0.385417" stroke-miterlimit="10"/>
<path d="M597.188 276.493H500.992" stroke="#EECFF8" stroke-width="0.385417" stroke-miterlimit="10"/>
<path d="M169.487 1H120.55" stroke="#EECFF8" stroke-width="0.385417" stroke-miterlimit="10"/>
<path d="M435.331 1H297.121" stroke="#EECFF8" stroke-width="0.385417" stroke-miterlimit="10"/>
<path d="M182.478 195.83H124.575C123.195 195.83 122.079 194.713 122.079 193.334V180.595C122.079 179.216 123.195 178.099 124.575 178.099H197.458" stroke="#EECFF8" stroke-width="0.385417" stroke-miterlimit="10"/>
<path d="M3.22294 157.715H68.3484C69.7277 157.715 70.8445 158.832 70.8445 160.211V172.951C70.8445 174.33 69.7277 175.447 68.3484 175.447H0" stroke="#EECFF8" stroke-width="0.385417" stroke-miterlimit="10"/>
<path d="M132.839 175.62H74.936C73.5568 175.62 72.4399 174.503 72.4399 173.124V160.385C72.4399 159.006 73.5568 157.889 74.936 157.889H147.819" stroke="#EECFF8" stroke-width="0.385417" stroke-miterlimit="10"/>
<path d="M33.4526 155.765C32.0734 155.765 30.9565 154.648 30.9565 153.269V140.53C30.9565 139.151 32.0734 138.034 33.4526 138.034" stroke="#EECFF8" stroke-width="0.385417" stroke-miterlimit="10"/>
<path d="M142.629 116.409H64.2993C62.9201 116.409 61.8032 115.292 61.8032 113.913V101.174C61.8032 99.7946 62.9201 98.6777 64.2993 98.6777H142.632C144.011 98.6777 145.128 99.7946 145.128 101.174V113.913C145.125 115.292 144.008 116.409 142.629 116.409Z" stroke="#EECFF8" stroke-width="0.385417" stroke-miterlimit="10"/>
<path d="M469.479 19.437H527.861C529.24 19.437 530.357 20.5539 530.357 21.9331V34.6724C530.357 36.0517 529.24 37.1685 527.861 37.1685H449.528" stroke="#EECFF8" stroke-width="0.385417" stroke-miterlimit="10"/>
<path d="M612.774 37.3424H534.441C533.062 37.3424 531.945 36.2255 531.945 34.8463V22.1069C531.945 20.7277 533.062 19.6108 534.441 19.6108H612.774C614.153 19.6108 615.27 20.7277 615.27 22.1069V34.8463C615.27 36.2255 614.153 37.3424 612.774 37.3424Z" stroke="#EECFF8" stroke-width="0.385417" stroke-miterlimit="10"/>
<path d="M488.147 38.938C489.526 38.938 490.643 40.0548 490.643 41.4341V54.1734C490.643 55.5526 489.526 56.6695 488.147 56.6695H417.614" stroke="#EECFF8" stroke-width="0.385417" stroke-miterlimit="10"/>
<path d="M573.064 56.8433H494.731C493.352 56.8433 492.235 55.7265 492.235 54.3472V41.6079C492.235 40.2287 493.352 39.1118 494.731 39.1118H573.064C574.443 39.1118 575.56 40.2287 575.56 41.6079V54.3472C575.56 55.7265 574.443 56.8433 573.064 56.8433Z" stroke="#EECFF8" stroke-width="0.385417" stroke-miterlimit="10"/>
<path d="M426.212 78.6484H491.338C492.717 78.6484 493.834 79.7653 493.834 81.1445V93.8839C493.834 95.2631 492.717 96.38 491.338 96.38H422.989" stroke="#EECFF8" stroke-width="0.385417" stroke-miterlimit="10"/>
<path d="M590.93 78.1168H533.027C531.648 78.1168 530.531 76.9999 530.531 75.6207V62.8813C530.531 61.5021 531.648 60.3853 533.027 60.3853H605.907" stroke="#EECFF8" stroke-width="0.385417" stroke-miterlimit="10"/>
<path d="M651.776 116.409H573.443C572.064 116.409 570.947 115.292 570.947 113.913V101.174C570.947 99.7946 572.064 98.6777 573.443 98.6777H651.776C653.155 98.6777 654.272 99.7946 654.272 101.174V113.913C654.272 115.292 653.155 116.409 651.776 116.409Z" stroke="#EECFF8" stroke-width="0.385417" stroke-miterlimit="10"/>
<path d="M183.757 135.91H105.428C104.049 135.91 102.932 134.793 102.932 133.414V120.674C102.932 119.295 104.049 118.178 105.428 118.178H183.761C185.14 118.178 186.257 119.295 186.257 120.674V133.414C186.254 134.793 185.137 135.91 183.757 135.91Z" stroke="#EECFF8" stroke-width="0.385417" stroke-miterlimit="10"/>
<path d="M518.752 219.409H583.878C585.257 219.409 586.374 220.526 586.374 221.905V234.644C586.374 236.023 585.257 237.14 583.878 237.14H515.529" stroke="#EECFF8" stroke-width="0.385417" stroke-miterlimit="10"/>
<path d="M648.368 237.314H590.465C589.086 237.314 587.969 236.197 587.969 234.817V222.078C587.969 220.699 589.086 219.582 590.465 219.582H663.345" stroke="#EECFF8" stroke-width="0.385417" stroke-miterlimit="10"/>
<path d="M598.73 217.104H540.827C539.448 217.104 538.331 215.987 538.331 214.608V201.869C538.331 200.489 539.448 199.373 540.827 199.373H613.707" stroke="#EECFF8" stroke-width="0.385417" stroke-miterlimit="10"/>
<path d="M654.272 177.393H637.267C635.888 177.393 634.771 176.276 634.771 174.897V162.158C634.771 160.778 635.888 159.662 637.267 159.662H644.614" stroke="#EECFF8" stroke-width="0.385417" stroke-miterlimit="10"/>
<path d="M473.369 238.555H492.947" stroke="#EECFF8" stroke-width="0.385417" stroke-miterlimit="10"/>
<path d="M424.695 40.0015H206.995V316.558H424.695V40.0015Z" fill="#F9C1DA"/>
<path d="M424.695 37.165H380.021V319.749H424.695V37.165Z" fill="#FBB5B7"/>
<path d="M254.152 37.165H205.577V319.749H254.152V37.165Z" fill="#FBB5B7"/>
<path d="M424.695 164.452H272.589V316.558H424.695V164.452Z" fill="url(#paint0_radial)"/>
<path d="M295.99 301.667V317.267H282.517V304.503L295.99 301.667Z" fill="#F1D23C"/>
<path d="M266.916 80.7759C266.916 80.7759 287.835 93.1855 280.743 133.251L275.78 135.023C275.78 135.023 277.552 125.45 276.134 119.423C276.134 119.423 276.489 133.251 273.298 135.733C273.298 135.733 265.143 138.569 258.761 136.442C252.379 134.314 242.451 135.023 242.451 135.023C242.451 135.023 229.687 137.151 221.532 130.06C213.377 122.968 216.923 113.75 216.923 113.75L234.296 89.9944L249.188 82.9032L266.916 80.7759Z" fill="#FA404B"/>
<path d="M266.916 80.7759C266.916 80.7759 287.835 93.1855 280.743 133.251L275.78 135.023C275.78 135.023 277.552 125.45 276.134 119.423C276.134 119.423 276.489 133.251 273.298 135.733C273.298 135.733 265.143 138.569 258.761 136.442C252.379 134.314 242.451 135.023 242.451 135.023C242.451 135.023 229.687 137.151 221.532 130.06C213.377 122.968 216.923 113.75 216.923 113.75L234.296 89.9944L249.188 82.9032L266.916 80.7759Z" fill="url(#paint1_radial)"/>
<path d="M260.179 128.641C260.179 128.641 258.052 143.887 261.598 144.242C265.143 144.596 280.389 148.851 282.517 150.978C284.644 153.106 269.752 163.033 269.752 163.033H239.26L220.823 158.07L215.859 149.56C215.859 149.56 235.715 147.433 237.842 143.178C239.969 138.923 241.033 118.714 239.26 112.331C237.487 105.949 260.179 128.641 260.179 128.641Z" fill="#FFDE99"/>
<path d="M260.179 128.641C260.179 128.641 258.052 143.887 261.598 144.242C265.143 144.596 280.389 148.851 282.517 150.978C284.644 153.106 269.752 163.033 269.752 163.033H239.26L220.823 158.07L215.859 149.56C215.859 149.56 235.715 147.433 237.842 143.178C239.969 138.923 241.033 118.714 239.26 112.331C237.487 105.949 260.179 128.641 260.179 128.641Z" fill="url(#paint2_radial)"/>
<path d="M260.179 128.641C260.179 128.641 258.052 143.887 261.598 144.242C265.143 144.596 280.389 148.851 282.517 150.978C284.644 153.106 269.752 163.033 269.752 163.033H239.26L220.823 158.07L215.859 149.56C215.859 149.56 235.715 147.433 237.842 143.178C239.969 138.923 241.033 118.714 239.26 112.331C237.487 105.949 260.179 128.641 260.179 128.641Z" fill="url(#paint3_radial)"/>
<path d="M270.816 88.576C270.816 88.576 277.553 107.368 270.816 121.55C266.841 129.914 262.994 134.456 260.502 136.775C258.981 138.193 256.722 138.47 254.893 137.484C250.542 135.137 242.611 130.361 242.097 126.517C241.388 121.199 240.324 113.753 240.324 113.753C240.324 113.753 235.36 117.299 233.233 112.69C231.105 108.08 233.942 103.826 239.615 106.662C245.288 109.499 261.597 86.4521 261.597 86.4521L270.816 88.576Z" fill="#FFDE99"/>
<path d="M274.716 113.396L273.422 87.1581C273.422 87.1581 266.562 79.7124 264.789 78.6487C263.016 77.585 262.307 78.6487 262.307 78.6487C259.697 76.0392 253.248 75.3088 247.352 75.2379C239.537 75.1457 232.006 78.2091 226.546 83.7969C218.841 91.6823 212.917 101.188 209.286 111.697C207.527 116.782 206.421 121.249 206.999 123.32C208.772 129.702 220.472 132.893 220.472 132.893C223.309 131.829 228.627 124.029 228.627 124.029C227.918 128.283 221.891 133.602 221.891 133.602L228.273 135.375C236.428 132.184 239.704 114.576 239.704 114.576L235.006 118.714L230.397 116.232L233.233 95.6676L243.161 91.7674L234.651 104.886C236.491 106.177 238.363 106.801 240.228 106.918C240.221 109.159 240.831 111.268 243.161 111.268C257.414 111.268 264.856 87.2007 264.856 87.2007C273.787 91.4979 273.653 116.232 273.653 116.232L274.716 113.396ZM243.161 109.141C241.696 109.276 241.033 108.258 240.774 106.935C252 107.052 262.661 89.2855 262.661 89.2855C253.088 107.723 247.061 108.786 243.161 109.141Z" fill="#FA404B"/>
<path d="M275.422 109.626C276.358 104.631 276.255 99.4931 275.117 94.5364L273.298 87.158C273.298 87.158 269.752 80.7759 264.788 78.6486C262.888 77.8331 262.306 78.6486 262.306 78.6486C259.697 76.039 253.24 75.3086 247.348 75.2377C239.537 75.1491 232.009 78.2089 226.549 83.7932C218.841 91.6786 212.916 101.188 209.282 111.697C207.524 116.781 206.417 121.249 206.995 123.319C208.768 129.702 220.468 132.893 220.468 132.893C223.305 131.829 228.623 124.029 228.623 124.029C227.914 128.283 221.887 133.602 221.887 133.602L228.269 135.375C236.424 132.183 239.7 114.576 239.7 114.576L237.728 115.218C236.505 115.615 235.158 115.257 234.296 114.3C233.172 113.051 232.658 111.367 232.896 109.704L233.101 108.265C233.183 107.683 233.456 107.145 233.871 106.726C234.686 105.911 235.927 105.712 236.973 106.201C238.023 106.691 238.962 106.84 240.225 106.918C240.217 109.158 240.827 111.268 243.157 111.268C257.41 111.268 264.852 87.2005 264.852 87.2005C273.787 91.4978 272.589 116.586 272.589 116.586C273.993 114.48 274.957 112.112 275.422 109.626ZM243.16 109.141C241.696 109.275 241.033 108.258 240.774 106.935C251.999 107.052 262.661 89.2854 262.661 89.2854C253.088 107.722 247.06 108.786 243.16 109.141Z" fill="url(#paint4_radial)"/>
<path d="M272.727 116.147C268.965 109.325 246.805 110.726 246.805 110.726L242.451 119.423L243.869 126.869L253.4 136.658C253.928 136.956 254.432 137.236 254.893 137.484C256.722 138.473 258.981 138.193 260.502 136.775C262.991 134.456 266.841 129.914 270.816 121.55C271.646 119.806 272.27 117.991 272.727 116.147Z" fill="url(#paint5_radial)"/>
<path d="M291.38 208.063C291.735 208.063 299.744 214.959 299.744 214.959L303.79 210.19L302.726 208.063L294.571 206.645L291.38 208.063Z" fill="url(#paint6_radial)"/>
<path d="M219.089 149.149C219.089 149.149 244.118 167.061 280.159 149.624C280.159 149.624 295.281 156.297 294.217 174.38L282.871 183.598L288.899 196.362C288.899 196.362 287.565 206.687 278.12 222.497C277.521 223.504 277.198 224.653 277.198 225.823C277.198 226.954 277.492 228.06 278.056 229.042C282.882 237.438 306.492 279.577 308.399 303.439C303.255 307.414 297.348 310.289 291.044 311.885L272.589 316.558H223.305L216.214 315.849L220.646 314.608C220.646 314.608 219.937 276.315 230.928 224.904C230.928 224.904 228.801 205.049 223.482 199.376L223.837 195.83C223.837 195.83 210.896 189.98 202.032 192.817C202.032 192.817 199.904 148.142 219.089 149.149Z" fill="#EECFF8"/>
<path d="M285.707 176.152C285.707 178.085 285.821 179.698 286.019 181.042L294.217 174.379C295.281 156.297 280.159 149.624 280.159 149.624C277.737 150.794 275.368 151.801 273.053 152.67C276.719 154.425 285.707 160.342 285.707 176.152Z" fill="url(#paint7_radial)"/>
<path d="M308.399 303.439C306.51 279.797 283.325 238.232 278.198 229.293L277.907 228.981C277.907 228.981 295.944 285.995 292.111 311.601C298.014 309.959 303.545 307.19 308.399 303.439Z" fill="url(#paint8_radial)"/>
<path d="M266.916 256.637L279.471 231.531C278.904 230.524 278.425 229.684 278.056 229.046C277.493 228.067 277.198 226.957 277.198 225.826C277.198 224.656 277.521 223.504 278.12 222.5C281.574 216.718 283.942 211.672 285.555 207.595L281.098 202.39L267.271 201.326L256.279 209.126C250.252 213.381 237.254 210.924 235.36 198.844C232.524 180.762 225.433 182.534 225.433 182.534L223.66 195.299L223.639 195.71C223.763 195.784 223.837 195.83 223.837 195.83L223.483 199.376C228.801 205.049 230.928 224.904 230.928 224.904C226.688 244.731 224.192 262.605 222.72 277.085L266.916 256.637Z" fill="url(#paint9_radial)"/>
<path d="M223.659 195.653L222.596 220.118L253.12 201.159C255.215 199.858 257.116 198.27 258.764 196.437L262.661 192.108H271.525L268.688 202.035L259.47 208.772C259.47 208.772 225.078 242.1 214.795 243.519C205.446 244.809 205.226 191.71 205.463 191.622C213.732 188.562 223.659 195.653 223.659 195.653Z" fill="#FFDE99"/>
<path d="M223.659 195.653L222.596 220.118L253.12 201.159C255.215 199.858 257.116 198.27 258.764 196.437L262.661 192.108H271.525L268.688 202.035L259.47 208.772C259.47 208.772 225.078 242.1 214.795 243.519C205.446 244.809 205.226 191.71 205.463 191.622C213.732 188.562 223.659 195.653 223.659 195.653Z" fill="url(#paint10_radial)"/>
<path d="M330.112 168.707H277.361C275.266 168.707 273.305 169.749 272.131 171.486L260.917 205.939C259.998 207.297 260.973 209.126 262.608 209.126H314.824C316.572 209.126 318.203 208.258 319.181 206.811L331.321 170.986C331.977 170.015 331.282 168.707 330.112 168.707Z" fill="#0061FE"/>
<path d="M314.824 209.126C316.572 209.126 318.203 208.258 319.181 206.811L331.322 170.986C331.977 170.015 331.283 168.707 330.109 168.707H320.447L269.511 209.126H314.824Z" fill="url(#paint11_linear)"/>
<path d="M308.399 209.126V203.453L303.79 196.008L297.408 189.625C297.408 189.625 295.99 191.753 298.117 194.944L295.635 191.753C295.635 191.753 294.217 193.526 295.99 196.717C297.763 199.908 299.181 202.035 299.181 202.035L300.954 207.353L295.635 200.971L293.153 198.135C293.153 198.135 292.09 199.908 294.572 203.808C297.053 207.708 297.408 208.417 297.408 208.417L293.508 202.744C293.508 202.744 292.09 204.162 293.862 206.999C294.869 208.609 296.444 211.016 297.621 212.799C298.624 214.321 300.128 215.448 301.868 215.983C303.106 216.363 304.439 216.274 305.616 215.732L306.205 215.459C307.541 214.842 308.399 213.502 308.399 212.027V209.126Z" fill="#FFDE99"/>
<path d="M308.399 209.126V203.453L303.79 196.008L297.408 189.625C297.408 189.625 295.99 191.753 298.117 194.944L295.635 191.753C295.635 191.753 294.217 193.526 295.99 196.717C297.763 199.908 299.181 202.035 299.181 202.035L300.954 207.353L295.635 200.971L293.153 198.135C293.153 198.135 292.09 199.908 294.572 203.808C297.053 207.708 297.408 208.417 297.408 208.417L293.508 202.744C293.508 202.744 292.09 204.162 293.862 206.999C294.869 208.609 296.444 211.016 297.621 212.799C298.624 214.321 300.128 215.448 301.868 215.983C303.106 216.363 304.439 216.274 305.616 215.732L306.205 215.459C307.541 214.842 308.399 213.502 308.399 212.027V209.126Z" fill="url(#paint12_radial)"/>
<path d="M297.408 189.625C297.408 189.625 296.11 191.576 297.862 194.536L301.308 198.844L304.499 204.872C304.499 204.872 305.917 202.744 308.399 203.453L303.79 196.008L297.408 189.625Z" fill="url(#paint13_radial)"/>
<path d="M269.678 192.107H262.661L258.764 196.437C257.116 198.27 255.215 199.858 253.12 201.159L222.596 220.118C222.596 220.118 219.405 221.89 215.859 227.209L211.604 232.173C211.604 232.173 212.668 236.073 219.405 232.882C226.141 229.691 259.115 198.135 266.207 197.426C269.486 197.1 270.032 194.646 269.678 192.107Z" fill="url(#paint14_radial)"/>
<path d="M240.678 222.954L230.244 228.173C219.969 277.929 220.646 314.608 220.646 314.608L216.214 315.849L223.305 316.558H238.441C229.538 296.685 240.678 222.954 240.678 222.954Z" fill="url(#paint15_radial)"/>
<path d="M352.896 40.1787C352.896 40.1787 371.334 131.3 424.517 176.329V40.1787H352.896Z" fill="#FFDE99"/>
<path d="M352.896 40.1787C352.896 40.1787 371.334 131.3 424.517 176.329V40.1787H352.896Z" fill="url(#paint16_radial)"/>
<path d="M369.029 71.9121C369.029 71.9121 388.53 132.187 420.085 163.034L421.149 141.406C421.149 141.406 388.884 113.396 369.029 71.9121Z" fill="url(#paint17_radial)"/>
<path d="M358.038 46.0288C358.038 46.0288 389.242 113.09 429.79 144.245L427.776 119.001C427.776 119.004 386.846 91.2387 358.038 46.0288Z" fill="url(#paint18_radial)"/>
<path d="M254.152 37.165C254.152 37.165 225.432 107.013 206.995 114.459V40.0015L254.152 37.165Z" fill="#FFDE99"/>
<path d="M254.152 37.165C254.152 37.165 225.432 107.013 206.995 114.459V40.0015L254.152 37.165Z" fill="url(#paint19_radial)"/>
<path d="M244.933 50.9927C244.933 50.9927 222.951 96.0217 205.577 107.368L210.541 88.6398C210.541 88.6398 219.405 86.0941 244.933 50.9927Z" fill="url(#paint20_radial)"/>
<path opacity="0.62" d="M415.476 274.011H340.31L352.719 235.009H427.886L415.476 274.011Z" fill="#DEF4FF"/>
<path opacity="0.62" d="M384.257 241.037H354.137L355.378 237.491H385.498L384.257 241.037Z" fill="#DEF4FF"/>
<path opacity="0.62" d="M416.362 241.037H386.243L387.484 237.491H417.603L416.362 241.037Z" fill="#DEF4FF"/>
<path d="M411.207 311.966H309.977C309.055 311.966 308.307 311.218 308.307 310.296V310.19C308.307 309.268 309.055 308.52 309.977 308.52H411.207C412.129 308.52 412.877 309.268 412.877 310.19V310.296C412.877 311.218 412.133 311.966 411.207 311.966Z" fill="#241921"/>
<path d="M411.207 311.966H348.791C347.869 311.966 347.121 311.218 347.121 310.296V310.19C347.121 309.268 347.869 308.52 348.791 308.52H411.207C412.129 308.52 412.877 309.268 412.877 310.19V310.296C412.877 311.218 412.133 311.966 411.207 311.966Z" fill="#0061FE"/>
<path d="M427.73 254.538H366.033C365.2 254.538 364.462 255.07 364.203 255.861L347.957 305.13C347.546 306.378 348.475 307.662 349.787 307.662H411.484C412.317 307.662 413.054 307.13 413.313 306.339L429.559 257.07C429.97 255.822 429.042 254.538 427.73 254.538Z" fill="#0061FE"/>
<path d="M339.803 311.105H334.92C334.523 311.105 334.204 310.782 334.204 310.389C334.204 309.991 334.527 309.672 334.92 309.672H339.803C340.2 309.672 340.519 309.995 340.519 310.389C340.519 310.782 340.196 311.105 339.803 311.105Z" stroke="#F2F6FF" stroke-width="0.385417" stroke-miterlimit="10"/>
<path d="M408.573 311.246H403.691C403.294 311.246 402.975 310.924 402.975 310.53C402.975 310.133 403.297 309.814 403.691 309.814H408.573C408.97 309.814 409.289 310.137 409.289 310.53C409.289 310.924 408.967 311.246 408.573 311.246Z" stroke="#F2F6FF" stroke-width="0.385417" stroke-miterlimit="10"/>
<path d="M329.322 311.246H324.439C324.042 311.246 323.723 310.924 323.723 310.53C323.723 310.133 324.046 309.814 324.439 309.814H329.322C329.719 309.814 330.038 310.137 330.038 310.53C330.038 310.924 329.719 311.246 329.322 311.246Z" stroke="#F2F6FF" stroke-width="0.385417" stroke-miterlimit="10"/>
<path d="M343.678 311.246C343.281 311.246 342.962 310.924 342.962 310.53C342.962 310.133 343.285 309.814 343.678 309.814C344.075 309.814 344.394 310.137 344.394 310.53C344.394 310.924 344.075 311.246 343.678 311.246Z" stroke="#F2F6FF" stroke-width="0.385417" stroke-miterlimit="10"/>
<path d="M428.864 254.907C428.549 254.676 428.162 254.538 427.733 254.538H366.036C365.203 254.538 364.466 255.07 364.207 255.861L348.152 304.549L428.864 254.907Z" fill="url(#paint21_radial)"/>
<path d="M391.075 283.456C392.859 282.242 393.54 280.132 392.596 278.745C391.65 277.358 389.437 277.218 387.654 278.433C385.87 279.648 385.19 281.757 386.136 283.144C387.08 284.531 389.292 284.671 391.075 283.456Z" fill="#0144B9"/>
<path d="M418.493 258.3L398.968 270.359" stroke="#BDD9FF" stroke-width="0.385417" stroke-miterlimit="10"/>
<path d="M277.801 287.913C277.851 286.658 277.886 285.335 277.907 283.938H266.561H262.661H251.315C251.603 303.241 254.701 308.733 255.85 310.112C256.223 310.559 256.57 311.027 256.864 311.53L257.12 311.966H262.661H266.561H272.103L272.252 311.715C272.593 311.133 272.986 310.591 273.408 310.07C274.156 309.144 275.656 306.552 276.72 299.894C276.762 299.894 276.801 299.901 276.84 299.901C280.364 299.901 283.222 297.203 283.222 293.873C283.226 290.845 280.871 288.353 277.801 287.913ZM277.074 297.401C277.326 295.387 277.535 293.068 277.684 290.406C279.432 290.757 280.744 292.175 280.744 293.866C280.744 295.749 279.116 297.291 277.074 297.401Z" fill="#FA404B"/>
<path d="M283.225 293.866C283.225 290.845 280.871 288.353 277.801 287.913C277.85 286.658 277.886 285.335 277.907 283.938H271.727L261.58 311.966H262.661H266.561H272.103L272.252 311.715C272.592 311.133 272.986 310.591 273.408 310.07C274.156 309.144 275.656 306.552 276.719 299.894C276.762 299.894 276.801 299.901 276.84 299.901C280.368 299.894 283.225 297.195 283.225 293.866ZM277.074 297.401C277.326 295.387 277.535 293.068 277.684 290.406C279.432 290.757 280.744 292.175 280.744 293.866C280.744 295.749 279.116 297.291 277.074 297.401Z" fill="url(#paint22_radial)"/>
<path d="M264.611 285.711C271.955 285.711 277.907 284.997 277.907 284.116C277.907 283.234 271.955 282.52 264.611 282.52C257.268 282.52 251.315 283.234 251.315 284.116C251.315 284.997 257.268 285.711 264.611 285.711Z" fill="white"/>
<path d="M258.793 282.68C254.368 282.939 251.315 283.485 251.315 284.116C251.315 284.811 255.035 285.403 260.222 285.623L258.793 282.68Z" fill="url(#paint23_radial)"/>
<path d="M265.143 283.584C265.143 283.584 263.016 282.52 265.143 279.684C267.271 276.847 265.143 274.72 265.143 274.72" stroke="#BDD9FF" stroke-width="0.385417" stroke-miterlimit="10"/>
<path d="M197.6 26.3511V328.436H434.445V26.3511H197.6ZM430.013 322.94H202.032V31.8467H430.013V322.94Z" fill="#0061FE"/>
<path d="M197.6 26.3511V328.436H434.445V26.3511H197.6ZM430.013 322.94H202.032V31.8467H430.013V322.94Z" fill="url(#paint24_linear)"/>
<path d="M419.022 42.8379H416.186V311.948H419.022V42.8379Z" fill="#FB8F8F"/>
<path d="M310.527 42.8379H307.69V311.948H310.527V42.8379Z" fill="#FB8F8F"/>
<path d="M419.022 42.8379H416.186V311.948H419.022V42.8379Z" fill="url(#paint25_linear)"/>
<path d="M310.527 42.8379H307.69V311.948H310.527V42.8379Z" fill="url(#paint26_linear)"/>
<path d="M202.031 31.8467V322.94H430.013V31.8467H202.031ZM213.023 42.838H310.526V311.949H213.023V42.838ZM419.022 311.949H321.518V42.838H419.022V311.949Z" fill="#DEF4FF"/>
<path opacity="0.1" d="M202.031 31.8467V192.817H213.023V42.838H310.526V192.817H321.518V42.838H419.022V192.817H430.013V31.8467H202.031Z" fill="url(#paint27_linear)"/>
<path d="M310.172 221.891H213.023V311.949H310.172V221.891Z" fill="url(#paint28_linear)"/>
<path d="M117.292 332.336H501.28" stroke="#0061FE" stroke-width="0.385417" stroke-miterlimit="10"/>
<path d="M155.939 337.3H432.85" stroke="#0061FE" stroke-width="0.385417" stroke-miterlimit="10"/>
<path d="M241.565 349H302.549" stroke="#0061FE" stroke-width="0.385417" stroke-miterlimit="10"/>
<path d="M490.856 183.719H470.663C469.189 183.719 468.373 182.524 468.841 181.049L472.319 170.061C472.787 168.586 474.358 167.391 475.833 167.391H496.025C497.5 167.391 498.316 168.586 497.848 170.061L494.369 181.049C493.901 182.524 492.327 183.719 490.856 183.719Z" fill="url(#paint29_radial)"/>
<path d="M471.49 226.854H384.977L400.354 178.28H486.867L471.49 226.854Z" fill="url(#paint30_radial)"/>
<path d="M437.129 184.453C444.624 178.051 446.915 168.427 442.242 162.958C437.572 157.489 427.708 158.245 420.213 164.648C412.718 171.05 410.427 180.674 415.1 186.143C419.77 191.612 429.634 190.855 437.129 184.453Z" stroke="#0061FE" stroke-width="0.385417" stroke-miterlimit="10"/>
<path d="M431.662 184.365C439.157 177.962 441.448 168.338 436.775 162.869C432.105 157.4 422.241 158.157 414.746 164.559C407.25 170.962 404.96 180.586 409.633 186.055C414.303 191.524 424.166 190.767 431.662 184.365Z" fill="#F9C1DA"/>
<path d="M426.656 172.894C428.563 171.263 429.148 168.81 427.957 167.417C426.765 166.023 424.252 166.216 422.344 167.848C420.433 169.479 419.848 171.932 421.039 173.326C422.231 174.719 424.744 174.526 426.656 172.894Z" fill="white"/>
<path d="M428.747 181.737C428.861 177.911 426.631 175.152 422.972 175.152C419.313 175.152 415.338 177.911 413.03 181.737H428.747Z" fill="white"/>
<path d="M441.568 192.473C443.66 190.686 444.298 188 442.994 186.474C441.692 184.948 438.937 185.159 436.845 186.946C434.754 188.732 434.115 191.419 435.42 192.945C436.721 194.471 439.476 194.26 441.568 192.473Z" stroke="#0061FE" stroke-width="0.385417" stroke-miterlimit="10"/>
<path d="M439.98 187.232L438.409 192.196" stroke="#0061FE" stroke-width="0.385417" stroke-miterlimit="10"/>
<path d="M441.675 189.714H436.711" stroke="#0061FE" stroke-width="0.385417" stroke-miterlimit="10"/>
<path d="M484.693 218.168H436.842C435.466 218.168 434.704 217.054 435.14 215.679L441.986 194.058H492.327C493.702 194.058 494.465 195.171 494.029 196.547L487.973 215.679C487.533 217.054 486.065 218.168 484.693 218.168Z" stroke="#0061FE" stroke-width="0.385417" stroke-miterlimit="10"/>
<path d="M490.136 199.315H443.688L444.061 198.135H490.508L490.136 199.315Z" fill="#0061FE"/>
<path d="M489.164 202.39H442.717L443.089 201.209H489.536L489.164 202.39Z" fill="#0061FE"/>
<path d="M488.115 205.698H441.667L442.043 204.517H488.491L488.115 205.698Z" fill="#0061FE"/>
<path d="M487.143 208.772H440.696L441.068 207.591H487.515L487.143 208.772Z" fill="#0061FE"/>
<path d="M488.189 179.819H467.997C466.522 179.819 465.707 178.624 466.175 177.149L469.653 166.161C470.121 164.686 471.691 163.491 473.166 163.491H493.359C494.834 163.491 495.649 164.686 495.181 166.161L491.703 177.149C491.235 178.624 489.664 179.819 488.189 179.819Z" fill="#DEF4FF"/>
<path d="M480.517 174.918H473.979C473.241 174.918 472.833 174.319 473.064 173.582L474.284 169.731C474.518 168.994 475.305 168.395 476.042 168.395H482.58C483.318 168.395 483.725 168.994 483.495 169.731L482.275 173.582C482.041 174.319 481.254 174.918 480.517 174.918Z" stroke="#0061FE" stroke-width="0.385417" stroke-miterlimit="10"/>
<path d="M484.253 170.728C484.172 170.763 484.104 170.834 484.08 170.912L483.817 171.742L483.757 171.933L483.541 172.614C483.516 172.695 483.541 172.77 483.605 172.802L486.554 174.298C486.671 174.358 486.856 174.259 486.905 174.11L487.593 171.933L487.654 171.742L488.458 169.199C488.508 169.047 488.377 168.944 488.217 169.015L484.253 170.728Z" stroke="#0061FE" stroke-width="0.385417" stroke-miterlimit="10"/>
<path d="M465.338 165.902C465.444 165.902 465.589 165.927 465.674 166.04C465.749 166.143 465.76 166.299 465.706 166.469C465.572 166.895 465.104 167.253 464.685 167.253C464.579 167.253 464.433 167.228 464.348 167.115C464.274 167.012 464.263 166.856 464.316 166.685C464.455 166.26 464.919 165.902 465.338 165.902ZM465.338 165.547C464.767 165.547 464.161 166.008 463.98 166.579C463.799 167.15 464.114 167.611 464.685 167.611C465.256 167.611 465.862 167.15 466.043 166.579C466.224 166.008 465.908 165.547 465.338 165.547Z" fill="#0061FE"/>
<path d="M470.238 167.241C470.745 166.807 470.901 166.156 470.585 165.787C470.27 165.418 469.603 165.47 469.096 165.904C468.589 166.338 468.433 166.989 468.749 167.358C469.064 167.727 469.731 167.675 470.238 167.241Z" fill="#F9C1DA"/>
<path d="M474.879 167.242C475.386 166.808 475.542 166.157 475.226 165.788C474.911 165.418 474.244 165.471 473.737 165.904C473.23 166.338 473.074 166.989 473.39 167.358C473.705 167.727 474.372 167.675 474.879 167.242Z" fill="#FFDE99"/>
<path d="M390.916 219.231H381.697L384.619 210.013H393.837L390.916 219.231Z" stroke="#0061FE" stroke-width="0.385417" stroke-miterlimit="10"/>
<path d="M387.214 230.932H377.996L380.914 221.713H390.132L387.214 230.932Z" stroke="#0061FE" stroke-width="0.385417" stroke-miterlimit="10"/>
<path d="M383.509 242.632H374.291L377.209 233.414H386.427L383.509 242.632Z" stroke="#0061FE" stroke-width="0.385417" stroke-miterlimit="10"/>
<path d="M533.434 157.183H485.214L495.092 125.982H543.312L533.434 157.183Z" fill="#EECFF8"/>
<path d="M529.212 152.043H480.992L490.873 120.841H539.093L529.212 152.043Z" fill="url(#paint31_radial)"/>
<path d="M547.677 130.091H513.838L519.256 112.984H553.095L547.677 130.091Z" fill="#FFDE99"/>
<path d="M513.824 130.091H547.691L553.105 112.984H519.241L513.824 130.091Z" fill="url(#paint32_radial)"/>
<path d="M546.032 123.096C547.472 121.302 550.188 120.493 551.659 121.419C552.365 121.862 552.772 122.614 553.414 123.128C554.322 123.858 555.705 124.078 557.119 123.716C558.538 123.358 559.966 122.422 560.952 121.213" stroke="#FA404B" stroke-width="0.385417" stroke-miterlimit="10"/>
<path d="M553.261 113.041L532.764 124.032L519.224 113.041" stroke="#FA404B" stroke-width="0.385417" stroke-miterlimit="10"/>
<path d="M196.958 328.102H151.358L148.851 299.252H199.464L196.958 328.102Z" fill="#FB8F8F"/>
<path d="M196.958 328.102H151.358L148.851 299.252H199.464L196.958 328.102Z" fill="url(#paint33_linear)"/>
<path d="M160.991 328.102C161.768 325.66 162.544 323.224 163.324 320.788C165.285 314.64 167.295 308.52 169.334 302.411C169.685 301.362 170.029 300.305 170.376 299.252H148.851L151.358 328.102H160.991Z" fill="url(#paint34_radial)"/>
<path d="M174.156 297.057H146.848L147.096 299.252H148.851H174.156H199.464H201.216L201.468 297.057H174.156Z" fill="#FB8F8F"/>
<path d="M149.734 326.308H198.663" stroke="#0061FE" stroke-width="0.385417" stroke-miterlimit="10"/>
<path d="M145.657 301.135H202.032" stroke="#0061FE" stroke-width="0.385417" stroke-miterlimit="10"/>
<path d="M147.631 301.209L150.291 332.336" stroke="#0061FE" stroke-width="0.385417" stroke-miterlimit="10"/>
<path d="M174.096 301.135V332.336" stroke="#0061FE" stroke-width="0.385417" stroke-miterlimit="10"/>
<path d="M147.536 313.519H174.096" stroke="#0061FE" stroke-width="0.385417" stroke-miterlimit="10"/>
<path d="M147.66 328.258H174.22" stroke="#0061FE" stroke-width="0.385417" stroke-miterlimit="10"/>
<path d="M200.808 301.209L198.121 332.336" stroke="#0061FE" stroke-width="0.385417" stroke-miterlimit="10"/>
<path d="M200.904 313.519H174.096" stroke="#0061FE" stroke-width="0.385417" stroke-miterlimit="10"/>
<path d="M200.777 328.258H173.968" stroke="#0061FE" stroke-width="0.385417" stroke-miterlimit="10"/>
<path d="M149.025 315.317H199.372" stroke="#0061FE" stroke-width="0.385417" stroke-miterlimit="10"/>
<path d="M147.961 302.907H200.79" stroke="#0061FE" stroke-width="0.385417" stroke-miterlimit="10"/>
<path d="M155.939 297.057L143.678 263.774C140.834 256.052 135.959 249.23 129.542 244.079C122.738 238.618 113.253 232.126 103.287 228.804" stroke="#0061FE" stroke-width="0.385417" stroke-miterlimit="10"/>
<path d="M162.799 297.057C162.799 297.057 159.661 233.768 179.871 192.639" stroke="#0061FE" stroke-width="0.385417" stroke-miterlimit="10"/>
<path d="M179.872 297.252C179.872 297.252 190.154 274.543 206.818 270.288" stroke="#0061FE" stroke-width="0.385417" stroke-miterlimit="10"/>
<path d="M159.612 297.401C159.612 297.401 150.797 267.451 155.761 261.424C160.725 255.396 207.896 240.859 218.171 233.414" stroke="#0061FE" stroke-width="0.385417" stroke-miterlimit="10"/>
<path d="M140.792 257.467C140.792 257.467 138.388 234.832 146.897 218.876C146.897 218.876 151.351 242.873 140.792 257.467Z" fill="#0061FE"/>
<path d="M129.524 243.696C129.524 243.696 111.087 225.968 118.532 210.722C118.532 210.722 130.233 216.749 129.524 243.696Z" fill="#0061FE"/>
<path d="M138.657 253.982L137.881 251.798C136.959 249.199 134.155 247.784 131.52 248.596C124.362 250.801 111.3 255.478 108.25 261.066C108.25 261.069 133.254 252.922 138.657 253.982Z" fill="#0061FE"/>
<path d="M122.805 239.037C122.805 239.037 96.1957 252.914 86.2681 253.624C86.2681 253.624 103.326 238.278 122.805 239.037Z" fill="#0061FE"/>
<path d="M109.761 231.407C109.761 231.407 103.996 216.04 95.1319 209.304C88.4236 204.205 84.4951 199.73 84.4951 199.73C84.4951 199.73 89.2888 219.83 109.761 231.407Z" fill="#0061FE"/>
<path d="M103.287 228.805C103.287 228.805 74.213 232.705 63.5762 229.514C63.5762 229.514 81.6587 218.877 103.287 228.805Z" fill="#0061FE"/>
<path d="M165.735 242.739C165.735 242.739 190.863 228.095 192.636 214.977C192.636 214.977 170.742 227.599 165.735 242.739Z" fill="#0061FE"/>
<path d="M166.434 238.172C166.434 238.172 156.471 189.803 144.061 188.03C144.061 188.03 151.223 224.138 166.434 238.172Z" fill="#0061FE"/>
<path d="M170.444 219.586C170.444 219.586 166.043 177.748 159.307 169.593C159.307 169.593 155.697 201.503 170.444 219.586Z" fill="#0061FE"/>
<path d="M177.34 198.185C177.34 198.185 168.526 169.391 174.553 157.715C174.553 157.715 181.549 188.739 177.34 198.185Z" fill="#0061FE"/>
<path d="M174.103 206.645C174.103 206.645 191.927 202.922 194.763 190.867C194.763 190.867 182.875 195.831 174.103 206.645Z" fill="#0061FE"/>
<path d="M179.872 192.639C179.872 192.639 183.772 167.466 199.372 158.602C199.372 158.602 193.699 175.975 179.872 192.639Z" fill="#0061FE"/>
<path d="M171.249 297.057C171.249 297.057 166.753 282.697 175.262 274.897C175.262 274.897 174.316 288.725 172.663 297.057H171.249Z" fill="#0061FE"/>
<path d="M134.853 244.224C135.537 244.224 135.537 243.161 134.853 243.161C134.169 243.161 134.165 244.224 134.853 244.224Z" fill="#0061FE"/>
<path d="M117.519 232.403C118.203 232.403 118.203 231.339 117.519 231.339C116.834 231.339 116.834 232.403 117.519 232.403Z" fill="#0061FE"/>
<path d="M109.86 237.644C110.545 237.644 110.545 236.58 109.86 236.58C109.176 236.58 109.176 237.644 109.86 237.644Z" fill="#0061FE"/>
<path d="M110.8 235.357C111.484 235.357 111.484 234.293 110.8 234.293C110.116 234.293 110.116 235.357 110.8 235.357Z" fill="#0061FE"/>
<path d="M108.116 235.896C108.8 235.896 108.8 234.832 108.116 234.832C107.431 234.832 107.428 235.896 108.116 235.896Z" fill="#0061FE"/>
<path d="M107.308 238.448C107.992 238.448 107.992 237.385 107.308 237.385C106.623 237.385 106.623 238.448 107.308 238.448Z" fill="#0061FE"/>
<path d="M114.966 230.12C115.65 230.12 115.65 229.056 114.966 229.056C114.282 229.056 114.282 230.12 114.966 230.12Z" fill="#0061FE"/>
<path d="M115.101 226.624C115.785 226.624 115.785 225.56 115.101 225.56C114.416 225.56 114.416 226.624 115.101 226.624Z" fill="#0061FE"/>
<path d="M116.849 229.85C117.533 229.85 117.533 228.787 116.849 228.787C116.164 228.787 116.161 229.85 116.849 229.85Z" fill="#0061FE"/>
<path d="M173.011 223.401C173.695 223.401 173.695 222.337 173.011 222.337C172.326 222.337 172.323 223.401 173.011 223.401Z" fill="#0061FE"/>
<path d="M173.011 220.848C173.695 220.848 173.695 219.784 173.011 219.784C172.326 219.784 172.323 220.848 173.011 220.848Z" fill="#0061FE"/>
<path d="M174.085 222.057C174.769 222.057 174.769 220.994 174.085 220.994C173.401 220.994 173.401 222.057 174.085 222.057Z" fill="#0061FE"/>
<path d="M175.294 220.713C175.978 220.713 175.978 219.649 175.294 219.649C174.61 219.649 174.61 220.713 175.294 220.713Z" fill="#0061FE"/>
<path d="M175.294 218.16C175.978 218.16 175.978 217.097 175.294 217.097C174.61 217.097 174.61 218.16 175.294 218.16Z" fill="#0061FE"/>
<path d="M178.032 219.465C178.716 219.465 178.716 218.401 178.032 218.401C177.344 218.401 177.344 219.465 178.032 219.465Z" fill="#0061FE"/>
<path d="M186.236 281.261C186.92 281.261 186.92 280.198 186.236 280.198C185.552 280.198 185.552 281.261 186.236 281.261Z" fill="#0061FE"/>
<path d="M185.371 278.624C186.055 278.624 186.055 277.56 185.371 277.56C184.686 277.56 184.686 278.624 185.371 278.624Z" fill="#0061FE"/>
<path d="M184.162 281.442C184.846 281.442 184.846 280.378 184.162 280.378C183.477 280.378 183.477 281.442 184.162 281.442Z" fill="#0061FE"/>
<path d="M183.257 279.159C183.942 279.159 183.942 278.095 183.257 278.095C182.573 278.095 182.573 279.159 183.257 279.159Z" fill="#0061FE"/>
<path d="M186.175 283.46C186.86 283.46 186.86 282.396 186.175 282.396C185.491 282.396 185.491 283.46 186.175 283.46Z" fill="#0061FE"/>
<path d="M182.818 283.52C183.502 283.52 183.502 282.456 182.818 282.456C182.134 282.456 182.134 283.52 182.818 283.52Z" fill="#0061FE"/>
<path d="M144.121 271.77C144.805 271.77 144.805 270.706 144.121 270.706C143.437 270.706 143.437 271.77 144.121 271.77Z" fill="#0061FE"/>
<path d="M143.721 268.544C144.405 268.544 144.405 267.48 143.721 267.48C143.036 267.48 143.033 268.544 143.721 268.544Z" fill="#0061FE"/>
<path d="M141.973 272.174C142.657 272.174 142.657 271.11 141.973 271.11C141.288 271.11 141.288 272.174 141.973 272.174Z" fill="#0061FE"/>
<path d="M140.094 270.156C140.778 270.156 140.778 269.093 140.094 269.093C139.406 269.093 139.406 270.156 140.094 270.156Z" fill="#0061FE"/>
<path d="M137.137 271.365C137.821 271.365 137.821 270.302 137.137 270.302C136.452 270.302 136.449 271.365 137.137 271.365Z" fill="#0061FE"/>
<path d="M174.121 197.997C174.805 197.997 174.805 196.933 174.121 196.933C173.436 196.933 173.436 197.997 174.121 197.997Z" fill="#0061FE"/>
<path d="M171.898 197.844C172.582 197.844 172.582 196.781 171.898 196.781C171.213 196.781 171.213 197.844 171.898 197.844Z" fill="#0061FE"/>
<path d="M171.358 195.479C172.043 195.479 172.043 194.416 171.358 194.416C170.674 194.416 170.674 195.479 171.358 195.479Z" fill="#0061FE"/>
<path d="M181.339 241.271C182.024 241.271 182.024 240.207 181.339 240.207C180.655 240.207 180.655 241.271 181.339 241.271Z" fill="#0061FE"/>
<path d="M179.726 243.284C180.41 243.284 180.41 242.221 179.726 242.221C179.042 242.221 179.042 243.284 179.726 243.284Z" fill="#0061FE"/>
<path d="M179.056 241.806C179.74 241.806 179.74 240.742 179.056 240.742C178.372 240.742 178.372 241.806 179.056 241.806Z" fill="#0061FE"/>
<path d="M177.982 245.703C178.666 245.703 178.666 244.639 177.982 244.639C177.298 244.639 177.294 245.703 177.982 245.703Z" fill="#0061FE"/>
<path d="M180.13 246.912C180.815 246.912 180.815 245.848 180.13 245.848C179.446 245.848 179.446 246.912 180.13 246.912Z" fill="#0061FE"/>
<path d="M207.676 245.838C208.36 245.838 208.36 244.774 207.676 244.774C206.992 244.774 206.988 245.838 207.676 245.838Z" fill="#0061FE"/>
<path d="M209.02 244.093C209.704 244.093 209.704 243.029 209.02 243.029C208.332 243.029 208.332 244.093 209.02 244.093Z" fill="#0061FE"/>
<path d="M209.286 246.777C209.97 246.777 209.97 245.713 209.286 245.713C208.601 245.713 208.601 246.777 209.286 246.777Z" fill="#0061FE"/>
<path d="M209.69 248.39C210.374 248.39 210.374 247.327 209.69 247.327C209.006 247.327 209.006 248.39 209.69 248.39Z" fill="#0061FE"/>
<path d="M206.598 247.047C207.282 247.047 207.282 245.983 206.598 245.983C205.914 245.983 205.914 247.047 206.598 247.047Z" fill="#0061FE"/>
<path d="M205.524 276.071C206.208 276.071 206.208 275.007 205.524 275.007C204.84 275.007 204.84 276.071 205.524 276.071Z" fill="#0061FE"/>
<path d="M206.198 274.858C206.882 274.858 206.882 273.794 206.198 273.794C205.513 273.794 205.51 274.858 206.198 274.858Z" fill="#0061FE"/>
<path d="M208.616 276.071C209.3 276.071 209.3 275.007 208.616 275.007C207.931 275.007 207.928 276.071 208.616 276.071Z" fill="#0061FE"/>
<path d="M177.599 250.833C177.599 250.833 179.162 247.242 179.162 244.76" stroke="#0061FE" stroke-width="0.385417" stroke-miterlimit="10"/>
<path d="M199.89 242.097C199.89 242.097 204.691 242.632 206.464 244.759" stroke="#0061FE" stroke-width="0.385417" stroke-miterlimit="10"/>
<path d="M146.075 270.288C146.075 270.288 143.707 269.224 141.225 269.933" stroke="#0061FE" stroke-width="0.385417" stroke-miterlimit="10"/>
<path d="M185.229 287.984C185.229 287.984 183.772 285.888 184.481 283.052" stroke="#0061FE" stroke-width="0.385417" stroke-miterlimit="10"/>
<path d="M199.89 273.234C199.89 273.234 203.982 273.479 204.691 274.188" stroke="#0061FE" stroke-width="0.385417" stroke-miterlimit="10"/>
<path d="M183.258 291.036C183.258 291.036 200.791 287.661 206.464 280.215C206.464 280.215 193.029 283.421 183.258 291.036Z" fill="#0061FE"/>
<path d="M183.258 291.036C183.258 291.036 200.791 287.661 206.464 280.215C206.464 280.215 193.029 283.421 183.258 291.036Z" fill="url(#paint35_radial)"/>
<path d="M189.328 282.552C189.328 282.552 185.544 270.642 191.926 261.424C191.926 261.424 191.692 277.801 189.328 282.552Z" fill="#0061FE"/>
<path d="M193.345 278.276C193.345 278.276 195.472 267.451 201.854 263.551C201.854 263.551 197.954 273.851 193.345 278.276Z" fill="#0061FE"/>
<path d="M135.648 250.018C135.648 250.018 134.843 248.305 134.843 245.114" stroke="#0061FE" stroke-width="0.385417" stroke-miterlimit="10"/>
<path d="M110.023 235.895C110.023 235.895 114.278 236.605 117.824 235.895C117.824 235.895 116.406 234.832 116.051 230.932" stroke="#0061FE" stroke-width="0.385417" stroke-miterlimit="10"/>
<path d="M173.135 198.312C173.135 198.312 174.783 199.426 174.847 204.542" stroke="#0061FE" stroke-width="0.385417" stroke-miterlimit="10"/>
<path d="M168.986 224.908C168.986 224.908 171.362 222.068 173.135 221.359" stroke="#0061FE" stroke-width="0.385417" stroke-miterlimit="10"/>
<path d="M173.344 196.731C174.029 196.731 174.029 195.667 173.344 195.667C172.66 195.667 172.66 196.731 173.344 196.731Z" fill="#0061FE"/>
<path d="M136.197 245.032C136.881 245.032 136.881 243.969 136.197 243.969C135.512 243.969 135.509 245.032 136.197 245.032Z" fill="#0061FE"/>
<path d="M137.137 241.941C137.821 241.941 137.821 240.877 137.137 240.877C136.452 240.877 136.449 241.941 137.137 241.941Z" fill="#0061FE"/>
<path d="M140.094 271.5C140.778 271.5 140.778 270.437 140.094 270.437C139.406 270.437 139.406 271.5 140.094 271.5Z" fill="#0061FE"/>
<path d="M171.358 253.624C171.358 253.624 181.644 266.742 194.763 265.324C194.763 265.324 181.995 255.042 171.358 253.624Z" fill="#0061FE"/>
<path d="M181.339 249.365C181.339 249.365 197.245 261.069 209.654 258.587C209.654 258.587 188.835 246.525 181.339 249.365Z" fill="#0061FE"/>
<path d="M181.339 249.365C181.339 249.365 197.245 261.069 209.654 258.587C209.654 258.587 188.835 246.525 181.339 249.365Z" fill="url(#paint36_radial)"/>
<path d="M186.977 247.174C186.977 247.174 186.254 230.577 192.636 224.904C192.636 224.904 192.309 241.076 186.977 247.174Z" fill="#0061FE"/>
<path d="M196.228 243.561C196.228 243.561 200.082 228.804 211.427 223.84C211.427 223.84 206.556 234.559 196.228 243.561Z" fill="#0061FE"/>
<path d="M209.959 237.917C209.959 237.917 212.846 224.55 219.228 220.295C219.228 220.295 217.001 232.846 209.959 237.917Z" fill="#0061FE"/>
<path d="M209.959 237.917C209.959 237.917 212.846 224.55 219.228 220.295C219.228 220.295 217.001 232.846 209.959 237.917Z" fill="url(#paint37_radial)"/>
<path d="M213.338 236.211C213.338 236.211 225.255 234.477 231.992 225.968C231.992 225.968 221.277 227.663 213.338 236.211Z" fill="#0061FE"/>
<path d="M118.873 210.924C120.089 213.803 127.815 232.364 129.538 243.079C129.999 219.366 120.77 212.154 118.873 210.924Z" fill="url(#paint38_radial)"/>
<path d="M138.565 253.801L138.583 253.772L137.881 251.801C136.959 249.202 134.154 247.787 131.52 248.599C127.904 249.713 122.777 251.461 118.199 253.634C131.499 247.465 138.565 253.801 138.565 253.801Z" fill="url(#paint39_radial)"/>
<path d="M115.714 254.89C115.821 254.833 115.924 254.78 116.034 254.719C115.927 254.776 115.821 254.833 115.714 254.89Z" fill="url(#paint40_radial)"/>
<path d="M146.688 219.281L141.225 256.85C150.277 243.597 147.592 223.231 146.997 219.483L146.766 219.128C146.742 219.178 146.713 219.231 146.688 219.281Z" fill="url(#paint41_radial)"/>
<path d="M95.1318 209.304C89.3418 204.903 85.6261 200.968 84.7148 199.975C85.3247 200.925 93.0824 212.87 99.2092 217.636C104.638 221.858 108.527 228.9 109.566 230.91C108.492 228.223 103.049 215.32 95.1318 209.304Z" fill="url(#paint42_radial)"/>
<path d="M166.427 238.143C166.178 236.955 156.449 190.444 144.316 188.083L144.238 188.207C144.238 188.207 155.584 211.608 159.839 224.727C162.275 232.24 164.129 235.562 165.271 237.033C165.632 237.406 166.001 237.767 166.373 238.111C166.391 238.126 166.412 238.133 166.427 238.143Z" fill="url(#paint43_radial)"/>
<path d="M159.201 170.731C160.477 175.815 164.214 191.356 164.803 201.326C165.452 212.36 169.664 218.043 170.373 218.93C169.781 213.594 165.547 177.145 159.307 169.593C159.307 169.593 159.261 169.997 159.201 170.731Z" fill="url(#paint44_radial)"/>
<path d="M174.748 158.612C174.844 162.835 175.383 180.815 177.567 186.435C177.967 187.463 178.34 187.973 178.68 188.112C178.556 177.081 175.549 162.353 174.748 158.612Z" fill="url(#paint45_radial)"/>
<path d="M198.131 241.391L198.943 241.04C205.602 234.466 209.506 227.602 210.871 224.968L198.131 241.391Z" fill="url(#paint46_radial)"/>
<path d="M172.968 237.995C180.407 232.705 191.1 223.794 192.561 215.423L174.021 235.364L172.968 237.995Z" fill="url(#paint47_radial)"/>
<path d="M172.444 253.932C176.507 257.935 191.898 264.271 194.547 265.341C194.618 265.334 194.689 265.331 194.76 265.32C194.76 265.32 182.719 255.627 172.284 253.765C172.337 253.822 172.391 253.875 172.444 253.932Z" fill="url(#paint48_radial)"/>
<path d="M231.644 226.386C231.761 226.248 231.878 226.11 231.992 225.968C231.992 225.968 223.649 227.29 216.231 233.477L231.644 226.386Z" fill="url(#paint49_radial)"/>
<path d="M450.801 305.088C450.801 305.088 458.147 295.199 458.583 289.218C459.963 270.359 446.163 259.321 450.765 240.462" stroke="#0061FE" stroke-width="0.385417" stroke-miterlimit="10"/>
<path d="M446.755 298.965C446.755 298.965 455.719 275.153 474.922 278.227C493.926 281.269 512.175 323.426 551.638 326.159C552.052 326.188 552.467 326.213 552.886 326.234" stroke="#0061FE" stroke-width="0.385417" stroke-miterlimit="10"/>
<path d="M475.113 278.031C475.113 278.031 479.34 271.504 483.562 275.344C487.785 279.184 475.113 278.031 475.113 278.031Z" fill="#EECFF8"/>
<path d="M484.062 282.361C484.062 282.361 488.554 277.266 492.011 282.258C495.465 287.25 484.062 282.361 484.062 282.361Z" fill="#EECFF8"/>
<path d="M476.584 278.592C476.584 278.592 473.574 285.715 478.183 285.328C482.793 284.942 476.584 278.592 476.584 278.592Z" fill="#EECFF8"/>
<path d="M483.654 282.283C483.654 282.283 480.105 288.016 485.098 288.402C490.09 288.785 483.945 282.258 483.945 282.258" fill="#EECFF8"/>
<path d="M492.391 289.384C492.391 289.384 487.016 294.164 492.394 296.855C497.773 299.546 492.391 289.384 492.391 289.384Z" fill="#EECFF8"/>
<path d="M499.209 296.064C499.209 296.064 496.234 304.152 501.226 303.383C506.218 302.613 499.209 296.064 499.209 296.064Z" fill="#EECFF8"/>
<path d="M483.654 282.283C483.654 282.283 480.105 288.016 485.098 288.402C490.09 288.785 483.945 282.258 483.945 282.258" fill="#EECFF8"/>
<path d="M492.391 289.384C492.391 289.384 487.016 294.164 492.394 296.855C497.773 299.546 492.391 289.384 492.391 289.384Z" fill="#EECFF8"/>
<path d="M499.209 296.064C499.209 296.064 496.234 304.152 501.226 303.383C506.218 302.613 499.209 296.064 499.209 296.064Z" fill="#EECFF8"/>
<path d="M493.231 290.182C493.231 290.182 497.773 284.176 501.226 288.785C504.683 293.394 493.231 290.182 493.231 290.182Z" fill="#EECFF8"/>
<path d="M500.677 297.305C500.677 297.305 505.07 291.476 507.757 297.238C510.445 302.996 500.677 297.305 500.677 297.305Z" fill="#EECFF8"/>
<path d="M508.835 305.301C508.835 305.301 508.527 302.227 512.366 303.379C516.206 304.531 508.835 305.301 508.835 305.301Z" fill="#EECFF8"/>
<path d="M507.371 304.148C507.371 304.148 500.843 308.375 507.371 310.293C513.902 312.215 507.371 304.148 507.371 304.148Z" fill="#EECFF8"/>
<path d="M515.731 311.147C515.731 311.147 510.058 315.289 516.589 316.824C523.117 318.359 515.731 311.147 515.731 311.147Z" fill="#EECFF8"/>
<path d="M518.926 313.551C518.926 313.551 521.964 308.375 523.503 312.984C525.042 317.593 518.926 313.551 518.926 313.551Z" fill="#EECFF8"/>
<path d="M522.94 316.274C522.94 316.274 521.199 323.351 525.808 322.582C530.417 321.813 522.94 316.274 522.94 316.274Z" fill="#EECFF8"/>
<path d="M513.448 309.303C513.448 309.303 514.672 303.765 517.742 307.222C520.812 310.679 513.448 309.303 513.448 309.303Z" fill="#EECFF8"/>
<path d="M525.595 317.898C525.595 317.898 531.949 309.527 533.871 315.671C535.792 321.816 525.595 317.898 525.595 317.898Z" fill="#EECFF8"/>
<path d="M530.91 320.692C530.91 320.692 529.648 329.113 534.64 327.574C539.632 326.039 530.91 320.692 530.91 320.692Z" fill="#EECFF8"/>
<path d="M552.69 326.039C552.69 326.039 556.53 320.277 559.218 323.734C561.905 327.191 552.69 326.422 552.69 326.422V326.039Z" fill="#EECFF8"/>
<path d="M546.27 325.532C546.27 325.532 545.777 319.128 550.386 320.663C554.995 322.199 546.27 325.532 546.27 325.532Z" fill="#EECFF8"/>
<path d="M543.876 325.333C543.876 325.333 542.323 333.339 546.163 331.034C550.003 328.73 543.876 325.333 543.876 325.333Z" fill="#EECFF8"/>
<path d="M539.597 324C539.597 324 536.175 326.808 538.863 327.96C541.554 329.113 539.597 324 539.597 324Z" fill="#EECFF8"/>
<path d="M539.328 324.064C539.328 324.064 538.923 318.579 543.465 320.692C548.007 322.805 539.328 324.064 539.328 324.064Z" fill="#EECFF8"/>
<path d="M457.658 277.78C457.658 277.78 448.464 277.716 449.844 273.578C451.226 269.441 457.658 277.78 457.658 277.78Z" fill="#EECFF8"/>
<path d="M455.495 270.455C455.495 270.455 445.706 270.82 448.004 266.682C450.305 262.541 455.495 270.455 455.495 270.455Z" fill="#EECFF8"/>
<path d="M451.684 259.779C451.684 259.779 442.026 254.258 446.163 253.34C450.305 252.422 451.684 259.779 451.684 259.779Z" fill="#EECFF8"/>
<path d="M449.961 251.142C449.961 251.142 444.784 246.44 447.546 244.139C450.305 241.842 452.375 246.185 449.961 251.142Z" fill="#EECFF8"/>
<path d="M455.495 270.455C455.495 270.455 445.706 270.82 448.004 266.682C450.305 262.541 455.495 270.455 455.495 270.455Z" fill="#EECFF8"/>
<path d="M451.684 259.779C451.684 259.779 442.026 254.258 446.163 253.34C450.305 252.422 451.684 259.779 451.684 259.779Z" fill="#EECFF8"/>
<path d="M449.961 251.142C449.961 251.142 444.784 246.44 447.546 244.139C450.305 241.842 452.375 246.185 449.961 251.142Z" fill="#EECFF8"/>
<path d="M452.687 262.629C452.687 262.629 450.765 255.641 454.446 255.641C458.126 255.641 452.687 262.629 452.687 262.629Z" fill="#EECFF8"/>
<path d="M456.977 275.103C456.977 275.103 451.687 270.82 457.208 268.058C462.728 265.296 456.977 275.103 456.977 275.103Z" fill="#EECFF8"/>
<path d="M450.5 241.646C450.5 241.646 444.784 237.704 448.464 235.403C452.145 233.102 450.5 241.646 450.5 241.646Z" fill="#EECFF8"/>
<path d="M458.126 280.687C458.126 280.687 459.044 273.117 461.806 274.957C464.565 276.797 458.126 280.687 458.126 280.687Z" fill="#EECFF8"/>
<path d="M463.856 298.95C463.856 298.95 458.286 278.673 441.898 280.311C425.51 281.949 403.801 298.744 403.801 298.744" stroke="#0061FE" stroke-width="0.385417" stroke-miterlimit="10"/>
<path d="M437.884 281.13C437.884 281.13 441.079 286.045 436.98 288.505C432.885 290.962 432.232 283.999 437.884 281.13Z" fill="#EECFF8"/>
<path d="M433.828 282.102C433.828 282.102 426.333 283.999 427.56 278.673C428.79 273.348 433.828 282.102 433.828 282.102Z" fill="#EECFF8"/>
<path d="M429.198 283.818C429.198 283.818 433.704 288.509 429.198 290.554C424.691 292.604 425.51 286.91 429.198 283.818Z" fill="#EECFF8"/>
<path d="M423.883 286.24C423.883 286.24 421.823 280.311 416.497 283.591C411.172 286.867 421.025 288.892 423.883 286.24Z" fill="#EECFF8"/>
<path d="M419.593 288.495C419.593 288.495 423.872 293.423 419.777 295.061C415.678 296.699 416.951 291.76 419.593 288.495Z" fill="#EECFF8"/>
<path d="M414.455 291.522C414.455 291.522 407.896 285.229 405.439 289.732C402.982 294.242 414.455 291.522 414.455 291.522Z" fill="#EECFF8"/>
<path d="M411.079 293.643C411.079 293.643 414.863 298.745 409.945 299.156C405.027 299.567 411.079 293.643 411.079 293.643Z" fill="#EECFF8"/>
<path d="M398.883 295.88C396.014 299.567 402.978 300.387 406.257 296.291V295.88C406.257 295.88 401.751 292.193 398.883 295.88Z" fill="#EECFF8"/>
<path d="M433.828 282.102C433.828 282.102 426.333 283.999 427.56 278.673C428.79 273.348 433.828 282.102 433.828 282.102Z" fill="#EECFF8"/>
<path d="M423.883 286.24C423.883 286.24 421.823 280.311 416.497 283.591C411.172 286.867 421.025 288.892 423.883 286.24Z" fill="#EECFF8"/>
<path d="M419.593 288.495C419.593 288.495 423.872 293.423 419.777 295.061C415.678 296.699 416.951 291.76 419.593 288.495Z" fill="#EECFF8"/>
<path d="M414.455 291.522C414.455 291.522 407.896 285.229 405.439 289.732C402.982 294.242 414.455 291.522 414.455 291.522Z" fill="#EECFF8"/>
<path d="M411.079 293.643C411.079 293.643 414.863 298.745 409.945 299.156C405.027 299.567 411.079 293.643 411.079 293.643Z" fill="#EECFF8"/>
<path d="M398.883 295.88C396.014 299.567 402.978 300.387 406.257 296.291V295.88C406.257 295.88 401.751 292.193 398.883 295.88Z" fill="#EECFF8"/>
<path d="M448.252 280.822C448.252 280.822 444.359 284.818 442.309 282.361C440.26 279.904 442.313 276.007 448.252 280.822Z" fill="#EECFF8"/>
<path d="M450.053 252.024C450.053 252.024 450.304 246.44 454.903 248.741C459.505 251.042 450.723 252.549 450.053 252.024Z" fill="#EECFF8"/>
<path d="M434.544 328.102H480.357L482.874 299.252H432.027L434.544 328.102Z" fill="#FB8F8F"/>
<path d="M434.544 328.102H480.357L482.874 299.252H432.027L434.544 328.102Z" fill="url(#paint50_linear)"/>
<path d="M470.677 328.102C469.897 325.66 469.117 323.224 468.334 320.788C466.362 314.64 464.345 308.52 462.295 302.411C461.944 301.362 461.597 300.305 461.25 299.252H482.874L480.357 328.102H470.677Z" fill="url(#paint51_radial)"/>
<path d="M457.449 297.057H484.888L484.637 299.252H482.874H457.449H432.027H430.265L430.013 297.057H457.449Z" fill="#FB8F8F"/>
<path d="M433.027 326.308H481.956" stroke="#0061FE" stroke-width="0.385417" stroke-miterlimit="10"/>
<path d="M428.95 301.135H485.325" stroke="#0061FE" stroke-width="0.385417" stroke-miterlimit="10"/>
<path d="M430.924 301.209L433.584 332.336" stroke="#0061FE" stroke-width="0.385417" stroke-miterlimit="10"/>
<path d="M457.389 301.135V332.336" stroke="#0061FE" stroke-width="0.385417" stroke-miterlimit="10"/>
<path d="M430.829 313.519H457.389" stroke="#0061FE" stroke-width="0.385417" stroke-miterlimit="10"/>
<path d="M430.953 328.258H457.513" stroke="#0061FE" stroke-width="0.385417" stroke-miterlimit="10"/>
<path d="M484.101 301.209L481.414 332.336" stroke="#0061FE" stroke-width="0.385417" stroke-miterlimit="10"/>
<path d="M484.197 313.519H457.389" stroke="#0061FE" stroke-width="0.385417" stroke-miterlimit="10"/>
<path d="M484.069 328.258H457.261" stroke="#0061FE" stroke-width="0.385417" stroke-miterlimit="10"/>
<path d="M432.318 315.317H482.665" stroke="#0061FE" stroke-width="0.385417" stroke-miterlimit="10"/>
<path d="M431.254 302.907H484.083" stroke="#0061FE" stroke-width="0.385417" stroke-miterlimit="10"/>
<defs>
<radialGradient id="paint0_radial" cx="0" cy="0" r="1" gradientUnits="userSpaceOnUse" gradientTransform="translate(305.488 372.007) scale(198.385)">
<stop offset="0.0775" stop-color="#0144B9"/>
<stop offset="1" stop-color="#EECFF8" stop-opacity="0"/>
</radialGradient>
<radialGradient id="paint1_radial" cx="0" cy="0" r="1" gradientUnits="userSpaceOnUse" gradientTransform="translate(246.728 171.588) scale(59.6585)">
<stop offset="0.0775" stop-color="#0144B9"/>
<stop offset="1" stop-color="#FA404B"/>
</radialGradient>
<radialGradient id="paint2_radial" cx="0" cy="0" r="1" gradientUnits="userSpaceOnUse" gradientTransform="translate(262.762 129.354) scale(44.1632)">
<stop stop-color="#FA404B"/>
<stop offset="0.025" stop-color="#FA484F" stop-opacity="0.975"/>
<stop offset="0.1916" stop-color="#FC7565" stop-opacity="0.8084"/>
<stop offset="0.3589" stop-color="#FD9B78" stop-opacity="0.6411"/>
<stop offset="0.5244" stop-color="#FEB886" stop-opacity="0.4756"/>
<stop offset="0.6876" stop-color="#FECD91" stop-opacity="0.3124"/>
<stop offset="0.8474" stop-color="#FFDA97" stop-opacity="0.1526"/>
<stop offset="1" stop-color="#FFDE99" stop-opacity="0"/>
</radialGradient>
<radialGradient id="paint3_radial" cx="0" cy="0" r="1" gradientUnits="userSpaceOnUse" gradientTransform="translate(219.498 143.865) scale(47.3503)">
<stop stop-color="#FA404B"/>
<stop offset="0.025" stop-color="#FA484F" stop-opacity="0.975"/>
<stop offset="0.1916" stop-color="#FC7565" stop-opacity="0.8084"/>
<stop offset="0.3589" stop-color="#FD9B78" stop-opacity="0.6411"/>
<stop offset="0.5244" stop-color="#FEB886" stop-opacity="0.4756"/>
<stop offset="0.6876" stop-color="#FECD91" stop-opacity="0.3124"/>
<stop offset="0.8474" stop-color="#FFDA97" stop-opacity="0.1526"/>
<stop offset="1" stop-color="#FFDE99" stop-opacity="0"/>
</radialGradient>
<radialGradient id="paint4_radial" cx="0" cy="0" r="1" gradientUnits="userSpaceOnUse" gradientTransform="translate(259.751 110.945) rotate(-49.2415) scale(86.444 74.5294)">
<stop offset="0.1329" stop-color="#FA404B"/>
<stop offset="0.2382" stop-color="#F6404D"/>
<stop offset="0.3392" stop-color="#EB4052"/>
<stop offset="0.4384" stop-color="#D7415A"/>
<stop offset="0.5365" stop-color="#BC4166"/>
<stop offset="0.634" stop-color="#994276"/>
<stop offset="0.7308" stop-color="#6E4289"/>
<stop offset="0.8266" stop-color="#3C439F"/>
<stop offset="0.9205" stop-color="#0244B8"/>
<stop offset="0.9225" stop-color="#0144B9"/>
</radialGradient>
<radialGradient id="paint5_radial" cx="0" cy="0" r="1" gradientUnits="userSpaceOnUse" gradientTransform="translate(267.867 101.318) scale(40.0216)">
<stop stop-color="#FA404B"/>
<stop offset="0.025" stop-color="#FA484F" stop-opacity="0.975"/>
<stop offset="0.1916" stop-color="#FC7565" stop-opacity="0.8084"/>
<stop offset="0.3589" stop-color="#FD9B78" stop-opacity="0.6411"/>
<stop offset="0.5244" stop-color="#FEB886" stop-opacity="0.4756"/>
<stop offset="0.6876" stop-color="#FECD91" stop-opacity="0.3124"/>
<stop offset="0.8474" stop-color="#FFDA97" stop-opacity="0.1526"/>
<stop offset="1" stop-color="#FFDE99" stop-opacity="0"/>
</radialGradient>
<radialGradient id="paint6_radial" cx="0" cy="0" r="1" gradientUnits="userSpaceOnUse" gradientTransform="translate(299.442 200.296) scale(20.322)">
<stop stop-color="#FA404B"/>
<stop offset="0.0248" stop-color="#FA484F"/>
<stop offset="0.1895" stop-color="#FC7565"/>
<stop offset="0.3551" stop-color="#FD9B78"/>
<stop offset="0.5188" stop-color="#FEB886"/>
<stop offset="0.6802" stop-color="#FECD91"/>
<stop offset="0.8383" stop-color="#FFDA97"/>
<stop offset="0.9893" stop-color="#FFDE99"/>
</radialGradient>
<radialGradient id="paint7_radial" cx="0" cy="0" r="1" gradientUnits="userSpaceOnUse" gradientTransform="translate(299.218 136.251) scale(36.5742)">
<stop stop-color="white"/>
<stop offset="0.3396" stop-color="#FFF9FC" stop-opacity="0.725"/>
<stop offset="1" stop-color="#FEF3F8" stop-opacity="0.1902"/>
</radialGradient>
<radialGradient id="paint8_radial" cx="0" cy="0" r="1" gradientUnits="userSpaceOnUse" gradientTransform="translate(337.735 227.571) scale(78.5331)">
<stop stop-color="white"/>
<stop offset="0.3396" stop-color="#FFF9FC" stop-opacity="0.725"/>
<stop offset="1" stop-color="#FEF3F8" stop-opacity="0.1902"/>
</radialGradient>
<radialGradient id="paint9_radial" cx="0" cy="0" r="1" gradientUnits="userSpaceOnUse" gradientTransform="translate(219.498 217.733) scale(44.0324)">
<stop offset="0.0775" stop-color="#0144B9"/>
<stop offset="1" stop-color="#EECFF8" stop-opacity="0"/>
</radialGradient>
<radialGradient id="paint10_radial" cx="0" cy="0" r="1" gradientUnits="userSpaceOnUse" gradientTransform="translate(200.822 183.367) scale(50.7335)">
<stop stop-color="#FA404B"/>
<stop offset="0.025" stop-color="#FA484F" stop-opacity="0.975"/>
<stop offset="0.1916" stop-color="#FC7565" stop-opacity="0.8084"/>
<stop offset="0.3589" stop-color="#FD9B78" stop-opacity="0.6411"/>
<stop offset="0.5244" stop-color="#FEB886" stop-opacity="0.4756"/>
<stop offset="0.6876" stop-color="#FECD91" stop-opacity="0.3124"/>
<stop offset="0.8474" stop-color="#FFDA97" stop-opacity="0.1526"/>
<stop offset="1" stop-color="#FFDE99" stop-opacity="0"/>
</radialGradient>
<linearGradient id="paint11_linear" x1="302.271" y1="156.853" x2="300.387" y2="192.651" gradientUnits="userSpaceOnUse">
<stop offset="0.1684" stop-color="#0061FE"/>
<stop offset="0.2649" stop-color="#2C7AFD" stop-opacity="0.9061"/>
<stop offset="0.4167" stop-color="#6B9EFB" stop-opacity="0.7582"/>
<stop offset="0.5622" stop-color="#9FBDFA" stop-opacity="0.6166"/>
<stop offset="0.697" stop-color="#C8D4F9" stop-opacity="0.4853"/>
<stop offset="0.8191" stop-color="#E6E5F9" stop-opacity="0.3664"/>
<stop offset="0.9241" stop-color="#F8EFF8" stop-opacity="0.2642"/>
<stop offset="1" stop-color="#FEF3F8" stop-opacity="0.1902"/>
</linearGradient>
<radialGradient id="paint12_radial" cx="0" cy="0" r="1" gradientUnits="userSpaceOnUse" gradientTransform="translate(311.601 221.793) scale(25.4785)">
<stop stop-color="#FA404B"/>
<stop offset="0.174" stop-color="#FB6F62" stop-opacity="0.826"/>
<stop offset="0.3511" stop-color="#FD9676" stop-opacity="0.6489"/>
<stop offset="0.5258" stop-color="#FEB685" stop-opacity="0.4742"/>
<stop offset="0.6948" stop-color="#FECC90" stop-opacity="0.3052"/>
<stop offset="0.8558" stop-color="#FFD997" stop-opacity="0.1442"/>
<stop offset="1" stop-color="#FFDE99" stop-opacity="0"/>
</radialGradient>
<radialGradient id="paint13_radial" cx="0" cy="0" r="1" gradientUnits="userSpaceOnUse" gradientTransform="translate(297.359 210.037) scale(23.7533)">
<stop stop-color="#FA404B"/>
<stop offset="0.174" stop-color="#FB6F62" stop-opacity="0.826"/>
<stop offset="0.3511" stop-color="#FD9676" stop-opacity="0.6489"/>
<stop offset="0.5258" stop-color="#FEB685" stop-opacity="0.4742"/>
<stop offset="0.6948" stop-color="#FECC90" stop-opacity="0.3052"/>
<stop offset="0.8558" stop-color="#FFD997" stop-opacity="0.1442"/>
<stop offset="1" stop-color="#FFDE99" stop-opacity="0"/>
</radialGradient>
<radialGradient id="paint14_radial" cx="0" cy="0" r="1" gradientUnits="userSpaceOnUse" gradientTransform="translate(231.993 205.267) scale(30.4995)">
<stop offset="0.0241" stop-color="white" stop-opacity="0.4345"/>
<stop offset="1" stop-color="#FFDE99" stop-opacity="0"/>
</radialGradient>
<radialGradient id="paint15_radial" cx="0" cy="0" r="1" gradientUnits="userSpaceOnUse" gradientTransform="translate(212.274 295.856) scale(47.0362)">
<stop offset="0.1417" stop-color="#FBB5B7"/>
<stop offset="1" stop-color="#EECFF8" stop-opacity="0"/>
</radialGradient>
<radialGradient id="paint16_radial" cx="0" cy="0" r="1" gradientUnits="userSpaceOnUse" gradientTransform="translate(402.631 19.1795) scale(140.822)">
<stop stop-color="#FA404B"/>
<stop offset="0.025" stop-color="#FA484F" stop-opacity="0.975"/>
<stop offset="0.1916" stop-color="#FC7565" stop-opacity="0.8084"/>
<stop offset="0.3589" stop-color="#FD9B78" stop-opacity="0.6411"/>
<stop offset="0.5244" stop-color="#FEB886" stop-opacity="0.4756"/>
<stop offset="0.6876" stop-color="#FECD91" stop-opacity="0.3124"/>
<stop offset="0.8474" stop-color="#FFDA97" stop-opacity="0.1526"/>
<stop offset="1" stop-color="#FFDE99" stop-opacity="0"/>
</radialGradient>
<radialGradient id="paint17_radial" cx="0" cy="0" r="1" gradientUnits="userSpaceOnUse" gradientTransform="translate(423.993 53.9679) scale(118.318)">
<stop stop-color="#FEF3F8" stop-opacity="0.1898"/>
<stop offset="0.4952" stop-color="#FEF1F7" stop-opacity="0.311"/>
<stop offset="0.7008" stop-color="#FDEAF2" stop-opacity="0.3613"/>
<stop offset="0.8522" stop-color="#FCDEEB" stop-opacity="0.3984"/>
<stop offset="0.977" stop-color="#FACCE1" stop-opacity="0.4289"/>
<stop offset="1" stop-color="#FAC8DE" stop-opacity="0.4345"/>
</radialGradient>
<radialGradient id="paint18_radial" cx="0" cy="0" r="1" gradientUnits="userSpaceOnUse" gradientTransform="translate(261.179 71.1653) rotate(-7.3286) scale(310.978 316.684)">
<stop stop-color="#FA404B"/>
<stop offset="0.025" stop-color="#FA484F" stop-opacity="0.975"/>
<stop offset="0.1916" stop-color="#FC7565" stop-opacity="0.8084"/>
<stop offset="0.3589" stop-color="#FD9B78" stop-opacity="0.6411"/>
<stop offset="0.5244" stop-color="#FEB886" stop-opacity="0.4756"/>
<stop offset="0.6876" stop-color="#FECD91" stop-opacity="0.3124"/>
<stop offset="0.8474" stop-color="#FFDA97" stop-opacity="0.1526"/>
<stop offset="1" stop-color="#FFDE99" stop-opacity="0"/>
</radialGradient>
<radialGradient id="paint19_radial" cx="0" cy="0" r="1" gradientUnits="userSpaceOnUse" gradientTransform="translate(264.374 21.5981) scale(138.116)">
<stop stop-color="#FA404B"/>
<stop offset="0.025" stop-color="#FA484F" stop-opacity="0.975"/>
<stop offset="0.1916" stop-color="#FC7565" stop-opacity="0.8084"/>
<stop offset="0.3589" stop-color="#FD9B78" stop-opacity="0.6411"/>
<stop offset="0.5244" stop-color="#FEB886" stop-opacity="0.4756"/>
<stop offset="0.6876" stop-color="#FECD91" stop-opacity="0.3124"/>
<stop offset="0.8474" stop-color="#FFDA97" stop-opacity="0.1526"/>
<stop offset="1" stop-color="#FFDE99" stop-opacity="0"/>
</radialGradient>
<radialGradient id="paint20_radial" cx="0" cy="0" r="1" gradientUnits="userSpaceOnUse" gradientTransform="translate(210.631 44.9765) scale(97.6396)">
<stop stop-color="#FA404B"/>
<stop offset="0.025" stop-color="#FA484F" stop-opacity="0.975"/>
<stop offset="0.1916" stop-color="#FC7565" stop-opacity="0.8084"/>
<stop offset="0.3589" stop-color="#FD9B78" stop-opacity="0.6411"/>
<stop offset="0.5244" stop-color="#FEB886" stop-opacity="0.4756"/>
<stop offset="0.6876" stop-color="#FECD91" stop-opacity="0.3124"/>
<stop offset="0.8474" stop-color="#FFDA97" stop-opacity="0.1526"/>
<stop offset="1" stop-color="#FFDE99" stop-opacity="0"/>
</radialGradient>
<radialGradient id="paint21_radial" cx="0" cy="0" r="1" gradientUnits="userSpaceOnUse" gradientTransform="translate(399.78 236.11) scale(63.5143)">
<stop offset="0.1096" stop-color="#BDD9FF"/>
<stop offset="1" stop-color="#0061FE" stop-opacity="0"/>
</radialGradient>
<radialGradient id="paint22_radial" cx="0" cy="0" r="1" gradientUnits="userSpaceOnUse" gradientTransform="translate(259.614 268.475) scale(45.9711)">
<stop offset="0.0775" stop-color="#0144B9"/>
<stop offset="1" stop-color="#EECFF8" stop-opacity="0"/>
</radialGradient>
<radialGradient id="paint23_radial" cx="0" cy="0" r="1" gradientUnits="userSpaceOnUse" gradientTransform="translate(250.507 281.058) scale(9.97141)">
<stop offset="0.0775" stop-color="#0144B9"/>
<stop offset="1" stop-color="#EECFF8" stop-opacity="0"/>
</radialGradient>
<linearGradient id="paint24_linear" x1="255.137" y1="364.92" x2="268.573" y2="323.539" gradientUnits="userSpaceOnUse">
<stop stop-color="#FEF3F8" stop-opacity="0.1898"/>
<stop offset="0.3137" stop-color="#FEF1F7" stop-opacity="0.311"/>
<stop offset="0.444" stop-color="#FDEAF2" stop-opacity="0.3613"/>
<stop offset="0.5399" stop-color="#FCDEEB" stop-opacity="0.3984"/>
<stop offset="0.6189" stop-color="#FACCE1" stop-opacity="0.4289"/>
<stop offset="0.6335" stop-color="#FAC8DE" stop-opacity="0.4345"/>
</linearGradient>
<linearGradient id="paint25_linear" x1="417.604" y1="25.8974" x2="417.604" y2="93.069" gradientUnits="userSpaceOnUse">
<stop offset="0.0775" stop-color="#EECFF8"/>
<stop offset="1" stop-color="#EECFF8" stop-opacity="0"/>
</linearGradient>
<linearGradient id="paint26_linear" x1="309.109" y1="25.8974" x2="309.109" y2="93.069" gradientUnits="userSpaceOnUse">
<stop offset="0.0775" stop-color="#EECFF8"/>
<stop offset="1" stop-color="#EECFF8" stop-opacity="0"/>
</linearGradient>
<linearGradient id="paint27_linear" x1="316.022" y1="27.241" x2="316.022" y2="171.557" gradientUnits="userSpaceOnUse">
<stop offset="0.0775" stop-color="#0144B9"/>
<stop offset="1" stop-color="#EECFF8" stop-opacity="0"/>
</linearGradient>
<linearGradient id="paint28_linear" x1="243.167" y1="215.223" x2="273.728" y2="300.944" gradientUnits="userSpaceOnUse">
<stop stop-color="#FEF3F8" stop-opacity="0"/>
<stop offset="0.3576" stop-color="#FEF0F6" stop-opacity="0.1554"/>
<stop offset="0.6198" stop-color="#FDE7F1" stop-opacity="0.2693"/>
<stop offset="0.8508" stop-color="#FBD7E7" stop-opacity="0.3697"/>
<stop offset="1" stop-color="#FAC8DE" stop-opacity="0.4345"/>
</linearGradient>
<radialGradient id="paint29_radial" cx="0" cy="0" r="1" gradientUnits="userSpaceOnUse" gradientTransform="translate(506.917 171.233) scale(30.8983 30.8984)">
<stop offset="0.131" stop-color="#B0B0F8"/>
<stop offset="0.1759" stop-color="#B7B7F9"/>
<stop offset="0.3876" stop-color="#D3D4FB"/>
<stop offset="0.5977" stop-color="#E8E9FD"/>
<stop offset="0.8034" stop-color="#F4F6FE"/>
<stop offset="1" stop-color="#F8FAFE"/>
</radialGradient>
<radialGradient id="paint30_radial" cx="0" cy="0" r="1" gradientUnits="userSpaceOnUse" gradientTransform="translate(408.169 128.19) scale(161.997)">
<stop offset="0.131" stop-color="#B0B0F8"/>
<stop offset="0.1759" stop-color="#B7B7F9"/>
<stop offset="0.3876" stop-color="#D3D4FB"/>
<stop offset="0.5977" stop-color="#E8E9FD"/>
<stop offset="0.8034" stop-color="#F4F6FE"/>
<stop offset="1" stop-color="#F8FAFE"/>
</radialGradient>
<radialGradient id="paint31_radial" cx="0" cy="0" r="1" gradientUnits="userSpaceOnUse" gradientTransform="translate(463.062 88.0744) scale(93.5239)">
<stop stop-color="#DEF4FF" stop-opacity="0"/>
<stop offset="0.4337" stop-color="#E1F5FF" stop-opacity="0.4337"/>
<stop offset="0.7513" stop-color="#EAF7FF" stop-opacity="0.7513"/>
<stop offset="1" stop-color="#F8FAFE"/>
</radialGradient>
<radialGradient id="paint32_radial" cx="0" cy="0" r="1" gradientUnits="userSpaceOnUse" gradientTransform="translate(548.638 105.468) rotate(180) scale(43.8236 43.7884)">
<stop stop-color="#FA404B"/>
<stop offset="0.025" stop-color="#FA484F" stop-opacity="0.975"/>
<stop offset="0.1916" stop-color="#FC7565" stop-opacity="0.8084"/>
<stop offset="0.3589" stop-color="#FD9B78" stop-opacity="0.6411"/>
<stop offset="0.5244" stop-color="#FEB886" stop-opacity="0.4756"/>
<stop offset="0.6876" stop-color="#FECD91" stop-opacity="0.3124"/>
<stop offset="0.8474" stop-color="#FFDA97" stop-opacity="0.1526"/>
<stop offset="1" stop-color="#FFDE99" stop-opacity="0"/>
</radialGradient>
<linearGradient id="paint33_linear" x1="148.851" y1="313.677" x2="199.463" y2="313.677" gradientUnits="userSpaceOnUse">
<stop stop-color="#FEF3F8" stop-opacity="0"/>
<stop offset="0.3576" stop-color="#FEF0F6" stop-opacity="0.1554"/>
<stop offset="0.6198" stop-color="#FDE7F1" stop-opacity="0.2693"/>
<stop offset="0.8508" stop-color="#FBD7E7" stop-opacity="0.3697"/>
<stop offset="1" stop-color="#FAC8DE" stop-opacity="0.4345"/>
</linearGradient>
<radialGradient id="paint34_radial" cx="0" cy="0" r="1" gradientUnits="userSpaceOnUse" gradientTransform="translate(154.327 277.945) scale(63.5686 79.5528)">
<stop stop-color="#0061FE"/>
<stop offset="0.0833" stop-color="#2267EF" stop-opacity="0.8685"/>
<stop offset="0.2045" stop-color="#5170DA" stop-opacity="0.6772"/>
<stop offset="0.3422" stop-color="#8079C5" stop-opacity="0.56"/>
<stop offset="0.4918" stop-color="#AC81B2" stop-opacity="0.4327"/>
<stop offset="0.6365" stop-color="#CE87A3" stop-opacity="0.3095"/>
<stop offset="0.7729" stop-color="#E78B98" stop-opacity="0.1934"/>
<stop offset="0.8976" stop-color="#F68E91" stop-opacity="0.0872"/>
<stop offset="1" stop-color="#FB8F8F" stop-opacity="0"/>
</radialGradient>
<radialGradient id="paint35_radial" cx="0" cy="0" r="1" gradientUnits="userSpaceOnUse" gradientTransform="translate(212.781 282.658) scale(16.9724)">
<stop offset="0.131" stop-color="#EECFF8"/>
<stop offset="0.2344" stop-color="#EACDF8" stop-opacity="0.8811"/>
<stop offset="0.3464" stop-color="#DDC7F8" stop-opacity="0.7522"/>
<stop offset="0.4625" stop-color="#C7BDF9" stop-opacity="0.6185"/>
<stop offset="0.5816" stop-color="#A8AFFA" stop-opacity="0.4815"/>
<stop offset="0.7028" stop-color="#819DFB" stop-opacity="0.3421"/>
<stop offset="0.8258" stop-color="#5187FC" stop-opacity="0.2005"/>
<stop offset="0.9481" stop-color="#1A6DFD" stop-opacity="0.0598"/>
<stop offset="1" stop-color="#0061FE" stop-opacity="0"/>
</radialGradient>
<radialGradient id="paint36_radial" cx="0" cy="0" r="1" gradientUnits="userSpaceOnUse" gradientTransform="translate(214.796 253.502) scale(16.1678)">
<stop offset="0.131" stop-color="#EECFF8"/>
<stop offset="0.2344" stop-color="#EACDF8" stop-opacity="0.8811"/>
<stop offset="0.3464" stop-color="#DDC7F8" stop-opacity="0.7522"/>
<stop offset="0.4625" stop-color="#C7BDF9" stop-opacity="0.6185"/>
<stop offset="0.5816" stop-color="#A8AFFA" stop-opacity="0.4815"/>
<stop offset="0.7028" stop-color="#819DFB" stop-opacity="0.3421"/>
<stop offset="0.8258" stop-color="#5187FC" stop-opacity="0.2005"/>
<stop offset="0.9481" stop-color="#1A6DFD" stop-opacity="0.0598"/>
<stop offset="1" stop-color="#0061FE" stop-opacity="0"/>
</radialGradient>
<radialGradient id="paint37_radial" cx="0" cy="0" r="1" gradientUnits="userSpaceOnUse" gradientTransform="translate(228.5 223.137) scale(15.7246)">
<stop offset="0.131" stop-color="#EECFF8"/>
<stop offset="0.2344" stop-color="#EACDF8" stop-opacity="0.8811"/>
<stop offset="0.3464" stop-color="#DDC7F8" stop-opacity="0.7522"/>
<stop offset="0.4625" stop-color="#C7BDF9" stop-opacity="0.6185"/>
<stop offset="0.5816" stop-color="#A8AFFA" stop-opacity="0.4815"/>
<stop offset="0.7028" stop-color="#819DFB" stop-opacity="0.3421"/>
<stop offset="0.8258" stop-color="#5187FC" stop-opacity="0.2005"/>
<stop offset="0.9481" stop-color="#1A6DFD" stop-opacity="0.0598"/>
<stop offset="1" stop-color="#0061FE" stop-opacity="0"/>
</radialGradient>
<radialGradient id="paint38_radial" cx="0" cy="0" r="1" gradientUnits="userSpaceOnUse" gradientTransform="translate(131.627 209.701) scale(35.0985)">
<stop offset="0.131" stop-color="#EECFF8"/>
<stop offset="0.2344" stop-color="#EACDF8" stop-opacity="0.8811"/>
<stop offset="0.3464" stop-color="#DDC7F8" stop-opacity="0.7522"/>
<stop offset="0.4625" stop-color="#C7BDF9" stop-opacity="0.6185"/>
<stop offset="0.5816" stop-color="#A8AFFA" stop-opacity="0.4815"/>
<stop offset="0.7028" stop-color="#819DFB" stop-opacity="0.3421"/>
<stop offset="0.8258" stop-color="#5187FC" stop-opacity="0.2005"/>
<stop offset="0.9481" stop-color="#1A6DFD" stop-opacity="0.0598"/>
<stop offset="1" stop-color="#0061FE" stop-opacity="0"/>
</radialGradient>
<radialGradient id="paint39_radial" cx="0" cy="0" r="1" gradientUnits="userSpaceOnUse" gradientTransform="translate(132.971 244.097) scale(9.70741)">
<stop offset="0.131" stop-color="#EECFF8"/>
<stop offset="0.2344" stop-color="#EACDF8" stop-opacity="0.8811"/>
<stop offset="0.3464" stop-color="#DDC7F8" stop-opacity="0.7522"/>
<stop offset="0.4625" stop-color="#C7BDF9" stop-opacity="0.6185"/>
<stop offset="0.5816" stop-color="#A8AFFA" stop-opacity="0.4815"/>
<stop offset="0.7028" stop-color="#819DFB" stop-opacity="0.3421"/>
<stop offset="0.8258" stop-color="#5187FC" stop-opacity="0.2005"/>
<stop offset="0.9481" stop-color="#1A6DFD" stop-opacity="0.0598"/>
<stop offset="1" stop-color="#0061FE" stop-opacity="0"/>
</radialGradient>
<radialGradient id="paint40_radial" cx="0" cy="0" r="1" gradientUnits="userSpaceOnUse" gradientTransform="translate(133.021 244.068) scale(9.73582 9.73452)">
<stop offset="0.131" stop-color="#EECFF8"/>
<stop offset="0.2344" stop-color="#EACDF8" stop-opacity="0.8811"/>
<stop offset="0.3464" stop-color="#DDC7F8" stop-opacity="0.7522"/>
<stop offset="0.4625" stop-color="#C7BDF9" stop-opacity="0.6185"/>
<stop offset="0.5816" stop-color="#A8AFFA" stop-opacity="0.4815"/>
<stop offset="0.7028" stop-color="#819DFB" stop-opacity="0.3421"/>
<stop offset="0.8258" stop-color="#5187FC" stop-opacity="0.2005"/>
<stop offset="0.9481" stop-color="#1A6DFD" stop-opacity="0.0598"/>
<stop offset="1" stop-color="#0061FE" stop-opacity="0"/>
</radialGradient>
<radialGradient id="paint41_radial" cx="0" cy="0" r="1" gradientUnits="userSpaceOnUse" gradientTransform="translate(158.23 224.884) scale(28.0824)">
<stop offset="0.131" stop-color="#EECFF8"/>
<stop offset="0.2344" stop-color="#EACDF8" stop-opacity="0.8811"/>
<stop offset="0.3464" stop-color="#DDC7F8" stop-opacity="0.7522"/>
<stop offset="0.4625" stop-color="#C7BDF9" stop-opacity="0.6185"/>
<stop offset="0.5816" stop-color="#A8AFFA" stop-opacity="0.4815"/>
<stop offset="0.7028" stop-color="#819DFB" stop-opacity="0.3421"/>
<stop offset="0.8258" stop-color="#5187FC" stop-opacity="0.2005"/>
<stop offset="0.9481" stop-color="#1A6DFD" stop-opacity="0.0598"/>
<stop offset="1" stop-color="#0061FE" stop-opacity="0"/>
</radialGradient>
<radialGradient id="paint42_radial" cx="0" cy="0" r="1" gradientUnits="userSpaceOnUse" gradientTransform="translate(102.874 196.937) scale(27.0637)">
<stop offset="0.131" stop-color="#EECFF8"/>
<stop offset="0.2344" stop-color="#EACDF8" stop-opacity="0.8811"/>
<stop offset="0.3464" stop-color="#DDC7F8" stop-opacity="0.7522"/>
<stop offset="0.4625" stop-color="#C7BDF9" stop-opacity="0.6185"/>
<stop offset="0.5816" stop-color="#A8AFFA" stop-opacity="0.4815"/>
<stop offset="0.7028" stop-color="#819DFB" stop-opacity="0.3421"/>
<stop offset="0.8258" stop-color="#5187FC" stop-opacity="0.2005"/>
<stop offset="0.9481" stop-color="#1A6DFD" stop-opacity="0.0598"/>
<stop offset="1" stop-color="#0061FE" stop-opacity="0"/>
</radialGradient>
<radialGradient id="paint43_radial" cx="0" cy="0" r="1" gradientUnits="userSpaceOnUse" gradientTransform="translate(159.512 176.985) scale(43.2236)">
<stop offset="0.131" stop-color="#EECFF8"/>
<stop offset="0.2344" stop-color="#EACDF8" stop-opacity="0.8811"/>
<stop offset="0.3464" stop-color="#DDC7F8" stop-opacity="0.7522"/>
<stop offset="0.4625" stop-color="#C7BDF9" stop-opacity="0.6185"/>
<stop offset="0.5816" stop-color="#A8AFFA" stop-opacity="0.4815"/>
<stop offset="0.7028" stop-color="#819DFB" stop-opacity="0.3421"/>
<stop offset="0.8258" stop-color="#5187FC" stop-opacity="0.2005"/>
<stop offset="0.9481" stop-color="#1A6DFD" stop-opacity="0.0598"/>
<stop offset="1" stop-color="#0061FE" stop-opacity="0"/>
</radialGradient>
<radialGradient id="paint44_radial" cx="0" cy="0" r="1" gradientUnits="userSpaceOnUse" gradientTransform="translate(166.891 158.657) scale(42.3975)">
<stop offset="0.131" stop-color="#EECFF8"/>
<stop offset="0.2344" stop-color="#EACDF8" stop-opacity="0.8811"/>
<stop offset="0.3464" stop-color="#DDC7F8" stop-opacity="0.7522"/>
<stop offset="0.4625" stop-color="#C7BDF9" stop-opacity="0.6185"/>
<stop offset="0.5816" stop-color="#A8AFFA" stop-opacity="0.4815"/>
<stop offset="0.7028" stop-color="#819DFB" stop-opacity="0.3421"/>
<stop offset="0.8258" stop-color="#5187FC" stop-opacity="0.2005"/>
<stop offset="0.9481" stop-color="#1A6DFD" stop-opacity="0.0598"/>
<stop offset="1" stop-color="#0061FE" stop-opacity="0"/>
</radialGradient>
<radialGradient id="paint45_radial" cx="0" cy="0" r="1" gradientUnits="userSpaceOnUse" gradientTransform="translate(177.456 152.074) scale(25.3223 25.3221)">
<stop offset="0.131" stop-color="#EECFF8"/>
<stop offset="0.2344" stop-color="#EACDF8" stop-opacity="0.8811"/>
<stop offset="0.3464" stop-color="#DDC7F8" stop-opacity="0.7522"/>
<stop offset="0.4625" stop-color="#C7BDF9" stop-opacity="0.6185"/>
<stop offset="0.5816" stop-color="#A8AFFA" stop-opacity="0.4815"/>
<stop offset="0.7028" stop-color="#819DFB" stop-opacity="0.3421"/>
<stop offset="0.8258" stop-color="#5187FC" stop-opacity="0.2005"/>
<stop offset="0.9481" stop-color="#1A6DFD" stop-opacity="0.0598"/>
<stop offset="1" stop-color="#0061FE" stop-opacity="0"/>
</radialGradient>
<radialGradient id="paint46_radial" cx="0" cy="0" r="1" gradientUnits="userSpaceOnUse" gradientTransform="translate(206.9 221.323) scale(14.3662)">
<stop offset="0.131" stop-color="#EECFF8"/>
<stop offset="0.2344" stop-color="#EACDF8" stop-opacity="0.8811"/>
<stop offset="0.3464" stop-color="#DDC7F8" stop-opacity="0.7522"/>
<stop offset="0.4625" stop-color="#C7BDF9" stop-opacity="0.6185"/>
<stop offset="0.5816" stop-color="#A8AFFA" stop-opacity="0.4815"/>
<stop offset="0.7028" stop-color="#819DFB" stop-opacity="0.3421"/>
<stop offset="0.8258" stop-color="#5187FC" stop-opacity="0.2005"/>
<stop offset="0.9481" stop-color="#1A6DFD" stop-opacity="0.0598"/>
<stop offset="1" stop-color="#0061FE" stop-opacity="0"/>
</radialGradient>
<radialGradient id="paint47_radial" cx="0" cy="0" r="1" gradientUnits="userSpaceOnUse" gradientTransform="translate(186.456 210.419) scale(19.8337)">
<stop offset="0.131" stop-color="#EECFF8"/>
<stop offset="0.2344" stop-color="#EACDF8" stop-opacity="0.8811"/>
<stop offset="0.3464" stop-color="#DDC7F8" stop-opacity="0.7522"/>
<stop offset="0.4625" stop-color="#C7BDF9" stop-opacity="0.6185"/>
<stop offset="0.5816" stop-color="#A8AFFA" stop-opacity="0.4815"/>
<stop offset="0.7028" stop-color="#819DFB" stop-opacity="0.3421"/>
<stop offset="0.8258" stop-color="#5187FC" stop-opacity="0.2005"/>
<stop offset="0.9481" stop-color="#1A6DFD" stop-opacity="0.0598"/>
<stop offset="1" stop-color="#0061FE" stop-opacity="0"/>
</radialGradient>
<radialGradient id="paint48_radial" cx="0" cy="0" r="1" gradientUnits="userSpaceOnUse" gradientTransform="translate(198.538 260.892) scale(22.4898)">
<stop offset="0.131" stop-color="#EECFF8"/>
<stop offset="0.2344" stop-color="#EACDF8" stop-opacity="0.8811"/>
<stop offset="0.3464" stop-color="#DDC7F8" stop-opacity="0.7522"/>
<stop offset="0.4625" stop-color="#C7BDF9" stop-opacity="0.6185"/>
<stop offset="0.5816" stop-color="#A8AFFA" stop-opacity="0.4815"/>
<stop offset="0.7028" stop-color="#819DFB" stop-opacity="0.3421"/>
<stop offset="0.8258" stop-color="#5187FC" stop-opacity="0.2005"/>
<stop offset="0.9481" stop-color="#1A6DFD" stop-opacity="0.0598"/>
<stop offset="1" stop-color="#0061FE" stop-opacity="0"/>
</radialGradient>
<radialGradient id="paint49_radial" cx="0" cy="0" r="1" gradientUnits="userSpaceOnUse" gradientTransform="translate(241.264 212.388) scale(31.1951)">
<stop offset="0.131" stop-color="#EECFF8"/>
<stop offset="0.2344" stop-color="#EACDF8" stop-opacity="0.8811"/>
<stop offset="0.3464" stop-color="#DDC7F8" stop-opacity="0.7522"/>
<stop offset="0.4625" stop-color="#C7BDF9" stop-opacity="0.6185"/>
<stop offset="0.5816" stop-color="#A8AFFA" stop-opacity="0.4815"/>
<stop offset="0.7028" stop-color="#819DFB" stop-opacity="0.3421"/>
<stop offset="0.8258" stop-color="#5187FC" stop-opacity="0.2005"/>
<stop offset="0.9481" stop-color="#1A6DFD" stop-opacity="0.0598"/>
<stop offset="1" stop-color="#0061FE" stop-opacity="0"/>
</radialGradient>
<linearGradient id="paint50_linear" x1="482.888" y1="313.677" x2="432.041" y2="313.677" gradientUnits="userSpaceOnUse">
<stop stop-color="#FEF3F8" stop-opacity="0"/>
<stop offset="0.3576" stop-color="#FEF0F6" stop-opacity="0.1554"/>
<stop offset="0.6198" stop-color="#FDE7F1" stop-opacity="0.2693"/>
<stop offset="0.8508" stop-color="#FBD7E7" stop-opacity="0.3697"/>
<stop offset="1" stop-color="#FAC8DE" stop-opacity="0.4345"/>
</linearGradient>
<radialGradient id="paint51_radial" cx="0" cy="0" r="1" gradientUnits="userSpaceOnUse" gradientTransform="translate(477.403 277.945) rotate(180) scale(63.8565 79.5528)">
<stop stop-color="#0061FE"/>
<stop offset="0.0833" stop-color="#2267EF" stop-opacity="0.8685"/>
<stop offset="0.2045" stop-color="#5170DA" stop-opacity="0.6772"/>
<stop offset="0.3422" stop-color="#8079C5" stop-opacity="0.56"/>
<stop offset="0.4918" stop-color="#AC81B2" stop-opacity="0.4327"/>
<stop offset="0.6365" stop-color="#CE87A3" stop-opacity="0.3095"/>
<stop offset="0.7729" stop-color="#E78B98" stop-opacity="0.1934"/>
<stop offset="0.8976" stop-color="#F68E91" stop-opacity="0.0872"/>
<stop offset="1" stop-color="#FB8F8F" stop-opacity="0"/>
</radialGradient>
</defs>
</svg>
