<svg width="644" height="389" viewBox="0 0 644 389" fill="none" xmlns="http://www.w3.org/2000/svg">
<path d="M283.042 369.624L350.187 385.823" stroke="#EECFF8" stroke-width="0.385417" stroke-miterlimit="10"/>
<path d="M353.744 385.823L330.177 372.864" stroke="#EECFF8" stroke-width="0.385417" stroke-miterlimit="10"/>
<path d="M315.057 386.749L245.245 388.6" stroke="#EECFF8" stroke-width="0.385417" stroke-miterlimit="10"/>
<path d="M333.809 386.767C334.668 386.767 334.668 385.379 333.809 385.379C332.951 385.379 332.947 386.767 333.809 386.767Z" fill="#EECFF8"/>
<path d="M358.075 380.922C358.933 380.922 358.933 379.533 358.075 379.533C357.216 379.533 357.212 380.922 358.075 380.922Z" fill="#EECFF8"/>
<path d="M358.297 388.401C359.155 388.401 359.155 387.013 358.297 387.013C357.439 387.013 357.439 388.401 358.297 388.401Z" fill="#EECFF8"/>
<path d="M231.58 387.702C232.438 387.702 232.438 386.313 231.58 386.313C230.722 386.313 230.722 387.702 231.58 387.702Z" fill="#EECFF8"/>
<path d="M293.594 359.872C294.452 359.872 294.452 358.483 293.594 358.483C292.736 358.483 292.731 359.872 293.594 359.872Z" fill="#EECFF8"/>
<path d="M264.383 345.844C265.242 345.844 265.242 344.455 264.383 344.455C263.525 344.455 263.525 345.844 264.383 345.844Z" fill="#EECFF8"/>
<path d="M457.796 386.054H514.713" stroke="#EECFF8" stroke-width="0.385417" stroke-miterlimit="10"/>
<path d="M524.051 386.054H639.665" stroke="#EECFF8" stroke-width="0.385417" stroke-miterlimit="10"/>
<path d="M489.145 380.038H536.28" stroke="#EECFF8" stroke-width="0.385417" stroke-miterlimit="10"/>
<path d="M612.3 323.65C612.514 323.65 612.514 323.303 612.3 323.303C612.082 323.303 612.082 323.65 612.3 323.65Z" fill="#0061FE"/>
<path d="M619.722 325.225C619.935 325.225 619.935 324.877 619.722 324.877C619.508 324.877 619.508 325.225 619.722 325.225Z" fill="#0061FE"/>
<path d="M594.531 325.886C594.531 325.886 594.976 332.366 591.863 334.68" stroke="#F1D23C" stroke-width="0.385417" stroke-miterlimit="10"/>
<path d="M537.614 355.044C537.614 355.044 545.618 361.524 555.4 362.45" stroke="#EECFF8" stroke-width="0.385417" stroke-miterlimit="10"/>
<path d="M485.81 78.0386H417.776V120.156H485.81V78.0386Z" stroke="#DEF4FF" stroke-width="0.385417" stroke-miterlimit="10"/>
<path d="M481.808 72.9478H413.774V115.066H481.808V72.9478Z" fill="url(#paint0_radial)"/>
<path d="M492.258 62.5342C505.767 62.5342 516.715 51.1374 516.715 37.0784C516.715 23.0194 505.767 11.6226 492.258 11.6226C478.749 11.6226 467.801 23.0194 467.801 37.0784C467.801 51.1374 478.749 62.5342 492.258 62.5342Z" stroke="#0061FE" stroke-width="0.385417" stroke-miterlimit="10"/>
<path d="M497.593 62.5342C511.102 62.5342 522.05 51.1374 522.05 37.0784C522.05 23.0194 511.102 11.6226 497.593 11.6226C484.084 11.6226 473.137 23.0194 473.137 37.0784C473.137 51.1374 484.084 62.5342 497.593 62.5342Z" fill="#DEF4FF"/>
<path d="M488.478 57.6743H436.007V84.5187H488.478V57.6743Z" fill="#FFDE99"/>
<path d="M488.478 57.6743H436.007V84.5187H488.478V57.6743Z" fill="url(#paint1_radial)"/>
<path d="M462.02 71.3274L436.007 58.021V84.5182H488.478V57.7896L462.02 71.3274Z" fill="url(#paint2_radial)"/>
<path d="M494.036 51.4263H441.565V78.2706H494.036V51.4263Z" fill="#FFDE99"/>
<path d="M467.578 65.0794L441.565 51.7729V78.2701H494.036V51.5415L467.578 65.0794Z" fill="url(#paint3_radial)"/>
<path d="M489.368 59.9883H500.484" stroke="#0061FE" stroke-width="0.385417" stroke-miterlimit="10"/>
<path d="M489.368 62.5337H500.484" stroke="#0061FE" stroke-width="0.385417" stroke-miterlimit="10"/>
<path d="M489.368 65.311H500.484" stroke="#0061FE" stroke-width="0.385417" stroke-miterlimit="10"/>
<path d="M459.13 90.9985H399.544V96.0897H459.13V90.9985Z" fill="url(#paint4_radial)"/>
<path d="M459.13 98.8662H399.544V103.957H459.13V98.8662Z" fill="url(#paint5_radial)"/>
<path d="M497.594 37.1104C500.542 37.1104 502.93 34.6236 502.93 31.5564C502.93 28.4892 500.542 26.0024 497.594 26.0024C494.646 26.0024 492.258 28.4892 492.258 31.5564C492.258 34.6236 494.646 37.1104 497.594 37.1104Z" fill="#0061FE"/>
<path d="M508.893 48.1538C507.23 43.0673 502.797 39.4248 497.594 39.4248C492.391 39.4248 487.958 43.0627 486.295 48.1538H508.893Z" fill="#0061FE"/>
<path d="M565.85 82.6672H523.162V72.4848L518.715 62.7653H523.162V52.583H565.85V82.6672Z" fill="#0061FE"/>
<path d="M542.283 57.2116H584.971V47.0293L589.417 37.3098H584.971V27.1274H542.283V57.2116Z" stroke="#0061FE" stroke-width="0.385417" stroke-miterlimit="10"/>
<path d="M545.618 31.987C546.356 31.987 546.952 31.3654 546.952 30.5985C546.952 29.8315 546.356 29.21 545.618 29.21C544.88 29.21 544.284 29.8315 544.284 30.5985C544.284 31.3654 544.88 31.987 545.618 31.987Z" stroke="#0061FE" stroke-width="0.385417" stroke-miterlimit="10"/>
<path d="M544.062 71.0964C545.783 71.0964 547.175 69.6458 547.175 67.8565C547.175 66.0672 545.783 64.6167 544.062 64.6167C542.341 64.6167 540.949 66.0672 540.949 67.8565C540.949 69.6458 542.341 71.0964 544.062 71.0964Z" fill="white"/>
<path d="M533.39 71.0964C535.11 71.0964 536.502 69.6458 536.502 67.8565C536.502 66.0672 535.11 64.6167 533.39 64.6167C531.669 64.6167 530.277 66.0672 530.277 67.8565C530.277 69.6458 531.669 71.0964 533.39 71.0964Z" fill="white"/>
<path d="M554.733 71.0964C556.454 71.0964 557.846 69.6458 557.846 67.8565C557.846 66.0672 556.454 64.6167 554.733 64.6167C553.012 64.6167 551.621 66.0672 551.621 67.8565C551.621 69.6458 553.012 71.0964 554.733 71.0964Z" fill="white"/>
<path d="M542.563 105.476C538.414 102.967 533.283 103.004 529.165 105.578C525.052 108.146 519.92 108.188 515.767 105.679L515.438 105.48C511.289 102.972 506.158 103.009 502.04 105.582C497.927 108.151 492.796 108.193 488.642 105.684L488.313 105.485C484.165 102.976 479.033 103.013 474.916 105.587" stroke="#0061FE" stroke-width="0.385417" stroke-miterlimit="10"/>
<path d="M578.523 14.3992C582.205 14.3992 585.193 11.2908 585.193 7.45666C585.193 3.62255 582.205 0.51416 578.523 0.51416C574.841 0.51416 571.853 3.62255 571.853 7.45666C571.853 11.2908 574.841 14.3992 578.523 14.3992Z" stroke="#FA404B" stroke-width="0.385417" stroke-miterlimit="10"/>
<path d="M561.403 84.9816H567.629V78.502" stroke="#FA404B" stroke-width="0.385417" stroke-miterlimit="10"/>
<path d="M125.914 240.521C125.914 240.521 119.946 238.693 113.61 238.721C111.031 238.73 108.55 237.716 106.713 235.828C105.97 235.064 105.21 234.06 104.574 233.139C103.649 231.806 101.853 231.533 100.603 232.537C93.3064 238.425 71.9534 257.132 73.6076 273.114C73.7188 274.188 75.0038 274.618 75.6975 273.813C78.5656 270.494 85.836 262.821 101.506 249.847C101.506 249.847 112.463 249.847 118.941 255.031C125.42 260.215 125.914 240.521 125.914 240.521Z" fill="#FFDE99"/>
<path d="M125.914 240.521C125.914 240.521 119.946 238.693 113.61 238.721C111.031 238.73 108.55 237.716 106.713 235.828C105.97 235.064 105.21 234.06 104.574 233.139C103.649 231.806 101.853 231.533 100.603 232.537C93.3064 238.425 71.9534 257.132 73.6076 273.114C73.7188 274.188 75.0038 274.618 75.6975 273.813C78.5656 270.494 85.836 262.821 101.506 249.847C101.506 249.847 112.463 249.847 118.941 255.031C125.42 260.215 125.914 240.521 125.914 240.521Z" fill="url(#paint6_radial)"/>
<path d="M252.431 232.227C252.431 232.227 216.07 279.403 192.161 290.812C192.161 290.812 120.934 263.334 113.459 253.485C113.459 253.485 116.447 239.489 122.922 237.934C129.396 236.378 167.499 243.895 182.943 261.524C182.943 261.524 200.876 193.608 223.287 187.906C245.708 182.195 252.431 232.227 252.431 232.227Z" fill="#0144B9"/>
<path d="M252.431 232.227C252.431 232.227 216.07 279.403 192.161 290.812C192.161 290.812 120.934 263.334 113.459 253.485C113.459 253.485 116.447 239.489 122.922 237.934C129.396 236.378 167.499 243.895 182.943 261.524C182.943 261.524 200.876 193.608 223.287 187.906C245.708 182.195 252.431 232.227 252.431 232.227Z" fill="url(#paint7_radial)"/>
<path d="M357.03 361.839C357.03 361.839 364.998 369.614 368.484 375.835C369.623 377.862 370.334 379.394 370.779 380.542C372.482 384.925 377.449 386.92 381.442 384.67C383.038 383.773 407.864 370.892 418.145 353.508C418.612 352.721 417.887 351.578 417.069 351.934C409.825 355.1 402.341 357.696 392.39 361.839C380.544 366.773 373.958 356.655 367.982 348.88C362.01 341.099 357.03 361.839 357.03 361.839Z" fill="#FFDE99"/>
<path d="M357.03 361.839C357.03 361.839 364.998 369.614 368.484 375.835C369.623 377.862 370.334 379.394 370.779 380.542C372.482 384.925 377.449 386.92 381.442 384.67C383.038 383.773 407.864 370.892 418.145 353.508C418.612 352.721 417.887 351.578 417.069 351.934C409.825 355.1 402.341 357.696 392.39 361.839C380.544 366.773 373.958 356.655 367.982 348.88C362.01 341.099 357.03 361.839 357.03 361.839Z" fill="url(#paint8_radial)"/>
<path d="M264.383 179.343C264.383 179.343 314.195 264.371 332.622 288.216C351.053 312.065 371.473 348.875 371.473 348.875C371.473 348.875 358.524 367.541 355.033 365.986C351.547 364.43 352.543 363.912 352.045 360.802C351.547 357.692 282.312 282 270.355 261.26C258.402 240.521 254.916 238.966 254.916 238.966C254.916 238.966 212.58 223.933 210.587 194.899C208.595 165.866 233.999 164.311 233.999 164.311L264.383 179.343Z" fill="#0061FE"/>
<path d="M277.586 211.228L315.939 271.369" stroke="#DEF4FF" stroke-width="0.385417" stroke-miterlimit="10"/>
<path d="M316.187 300.662C297.258 288.221 293.273 270.592 277.337 245.705C269.924 234.13 260.786 226.484 253.133 221.61C242.475 214.825 237.285 201.653 240.42 189.064C242.079 182.399 244.142 175.757 246.001 170.245L234.004 164.307C234.004 164.307 232.936 164.371 231.26 164.723L231.016 164.825L217.675 171.879C213.229 176.377 209.814 183.533 210.592 194.895C212.584 223.929 254.921 238.962 254.921 238.962C254.921 238.962 258.407 240.517 270.36 261.256C282.312 281.996 351.552 357.688 352.05 360.798C352.548 363.908 351.552 364.427 355.038 365.982C356.71 366.727 360.565 362.816 364.122 358.544C354.882 344.714 331.168 310.511 316.187 300.662Z" fill="url(#paint9_radial)"/>
<path d="M316.187 300.662C297.258 288.221 293.273 270.592 277.337 245.705C261.4 220.819 237.49 214.08 237.49 214.08C235.934 203.064 241.559 183.426 246.001 170.245L234.004 164.307C234.004 164.307 232.936 164.371 231.26 164.723L231.016 164.825L217.675 171.879C213.229 176.377 209.814 183.533 210.592 194.895C212.584 223.929 254.921 238.962 254.921 238.962C254.921 238.962 258.407 240.517 270.36 261.256C282.312 281.996 351.552 357.688 352.05 360.798C352.548 363.908 351.552 364.427 355.038 365.982C356.71 366.727 360.565 362.816 364.122 358.544C354.882 344.714 331.168 310.511 316.187 300.662Z" fill="url(#paint10_radial)"/>
<path d="M397.997 180.057C397.997 180.057 417.798 178.307 420.787 179.344C420.787 179.344 421.285 177.789 417.3 175.715C413.316 173.642 405.846 174.679 405.846 174.679L396.383 175.197L397.997 180.057Z" fill="url(#paint11_radial)"/>
<path d="M300.25 172.087C300.25 172.087 299.254 174.679 302.74 176.752C306.227 178.826 331.63 186.083 370.481 182.973C370.481 182.973 390.905 179.344 393.893 180.381C393.893 180.381 404.849 167.422 406.343 167.422C407.838 167.422 400.865 164.83 392.897 174.679L378.952 177.271H362.015L355.54 175.197C355.54 175.197 330.136 168.977 313.701 156.013C297.258 143.053 300.25 172.087 300.25 172.087Z" fill="#FFDE99"/>
<path d="M300.25 172.087C300.25 172.087 299.254 174.679 302.74 176.752C306.227 178.826 331.63 186.083 370.481 182.973C370.481 182.973 390.905 179.344 393.893 180.381C393.893 180.381 404.849 167.422 406.343 167.422C407.838 167.422 400.865 164.83 392.897 174.679L378.952 177.271H362.015L355.54 175.197C355.54 175.197 330.136 168.977 313.701 156.013C297.258 143.053 300.25 172.087 300.25 172.087Z" fill="url(#paint12_radial)"/>
<path d="M305.729 99.5053C305.729 99.5053 312.203 142.535 311.207 148.237C311.207 148.237 314.693 146.682 315.689 148.237C316.685 149.792 315.689 152.384 315.689 152.384L318.179 156.013C318.179 156.013 302.741 174.679 300.246 174.679C298.574 174.679 296.004 170.939 294.492 168.481C293.865 167.459 293.754 166.167 294.274 165.084C294.545 164.52 294.768 163.751 294.768 162.756C294.768 160.164 288.791 150.315 287.795 120.245C286.799 90.1699 305.729 99.5053 305.729 99.5053Z" fill="#F1D23C"/>
<path d="M305.729 99.5053C305.729 99.5053 312.203 142.535 311.207 148.237C311.207 148.237 314.693 146.682 315.689 148.237C316.685 149.792 315.689 152.384 315.689 152.384L318.179 156.013C318.179 156.013 302.741 174.679 300.246 174.679C298.574 174.679 296.004 170.939 294.492 168.481C293.865 167.459 293.754 166.167 294.274 165.084C294.545 164.52 294.768 163.751 294.768 162.756C294.768 160.164 288.791 150.315 287.795 120.245C286.799 90.1699 305.729 99.5053 305.729 99.5053Z" fill="url(#paint13_radial)"/>
<path d="M301.744 103.134C301.744 103.134 287.066 151.319 280.823 164.311C277.337 171.568 270.364 179.344 270.364 179.344C262.894 180.899 244.462 171.568 244.462 171.568L264.388 122.314L301.744 103.134Z" fill="#FB8F8F"/>
<path d="M318.179 63.2143C318.179 63.2143 312.203 67.8796 304.732 86.5457L297.76 79.8069L292.78 72.0312L291.784 66.3291C291.784 66.3291 304.732 57.5168 303.238 44.0345C301.744 30.5521 326.646 45.5849 318.179 63.2143Z" fill="#FFDE99"/>
<path d="M318.179 63.2143C318.179 63.2143 312.203 67.8796 304.732 86.5457L297.76 79.8069L292.78 72.0312L291.784 66.3291C291.784 66.3291 304.732 57.5168 303.238 44.0345C301.744 30.5521 326.646 45.5849 318.179 63.2143Z" fill="url(#paint14_radial)"/>
<path d="M331.128 22.2537C331.128 22.2537 332.124 62.6914 325.65 68.3936C325.65 68.3936 315.689 68.9119 311.207 64.2466C305.23 58.0261 303.736 51.2872 303.736 51.2872V45.0667L294.772 41.4381L290.788 28.4788L297.262 20.7032L315.195 18.1113L326.65 18.6297L331.128 22.2537Z" fill="#FFDE99"/>
<path d="M331.128 22.2537C331.128 22.2537 332.124 62.6914 325.65 68.3936C325.65 68.3936 315.689 68.9119 311.207 64.2466C305.23 58.0261 303.736 51.2872 303.736 51.2872V45.0667L294.772 41.4381L290.788 28.4788L297.262 20.7032L315.195 18.1113L326.65 18.6297L331.128 22.2537Z" fill="url(#paint15_radial)"/>
<path d="M328.536 62.1219C329.798 57.0723 330.47 49.9494 330.821 43.1179C327.162 39.1283 311.705 43.516 311.705 43.516V44.0343L308.717 58.0304L322.164 65.806L328.536 62.1219Z" fill="url(#paint16_radial)"/>
<path d="M316.143 27.8214C316.489 26.2709 317.343 24.8732 318.597 23.9568C319.602 23.2255 320.723 22.8645 321.421 24.0678C322.915 26.6597 326.401 33.3986 333.373 30.2883C340.346 27.1781 335.864 16.8106 335.864 16.8106C335.864 16.8106 339.35 21.476 337.856 24.5862C337.856 24.5862 344.828 17.8474 338.354 7.47527C331.879 -2.89683 322.915 13.6957 319.922 7.47527C316.93 1.25478 311.954 -2.37383 307.472 1.77316C302.989 5.92015 303.487 7.47527 303.487 7.47527C303.487 7.47527 304.483 3.32828 300.499 3.84665C296.515 4.36503 294.523 5.92015 289.543 4.36503C284.562 2.80991 273.601 5.40177 279.582 22.5127C285.558 39.6237 292.531 40.1421 291.037 43.2523C289.543 46.3625 287.052 52.583 295.519 52.0646C303.985 51.5463 303.181 48.8109 303.181 48.8109L303.985 45.3258C303.985 45.3258 296.515 42.7339 300.997 36.5134C305.479 30.293 307.97 36.5134 307.97 36.5134C307.97 36.5134 312.95 31.8481 314.942 25.6276C314.942 25.6276 312.95 33.9216 310.46 35.9951C310.46 35.9951 314.711 34.2224 316.143 27.8214Z" fill="#241921"/>
<path d="M316.143 27.8214C316.489 26.2709 317.343 24.8732 318.597 23.9568C319.602 23.2255 320.723 22.8645 321.421 24.0678C322.915 26.6597 326.401 33.3986 333.373 30.2883C340.346 27.1781 335.864 16.8106 335.864 16.8106C335.864 16.8106 339.35 21.476 337.856 24.5862C337.856 24.5862 344.828 17.8474 338.354 7.47527C331.879 -2.89683 322.915 13.6957 319.922 7.47527C316.93 1.25478 311.954 -2.37383 307.472 1.77316C302.989 5.92015 303.487 7.47527 303.487 7.47527C303.487 7.47527 304.483 3.32828 300.499 3.84665C296.515 4.36503 294.523 5.92015 289.543 4.36503C284.562 2.80991 273.601 5.40177 279.582 22.5127C285.558 39.6237 292.531 40.1421 291.037 43.2523C289.543 46.3625 287.052 52.583 295.519 52.0646C303.985 51.5463 303.181 48.8109 303.181 48.8109L303.985 45.3258C303.985 45.3258 296.515 42.7339 300.997 36.5134C305.479 30.293 307.97 36.5134 307.97 36.5134C307.97 36.5134 312.95 31.8481 314.942 25.6276C314.942 25.6276 312.95 33.9216 310.46 35.9951C310.46 35.9951 314.711 34.2224 316.143 27.8214Z" fill="url(#paint17_radial)"/>
<path d="M307.223 77.7288C307.223 77.7288 299.752 74.1002 296.764 65.2878C293.776 56.4755 286.305 55.4387 286.305 55.4387C286.305 55.4387 284.313 54.9203 285.309 59.0673C286.305 63.2143 283.815 69.9532 274.353 71.5083C264.89 73.0634 203.126 84.986 194.655 100.542C194.655 100.542 192.165 93.803 191.169 101.579V107.281C191.169 107.281 188.181 102.615 187.683 107.281C187.185 111.946 190.173 112.464 190.173 112.464L191.667 110.909C191.667 110.909 211.592 120.758 209.6 126.979C209.6 126.979 212.588 129.571 213.086 122.832C213.086 122.832 213.584 124.905 217.569 123.35L218.067 120.758C218.067 120.758 232.011 118.167 239.984 117.648C239.984 117.648 223.545 142.535 217.569 146.163C211.592 149.792 177.722 177.27 177.722 177.27L132.388 204.749C132.388 204.749 152.314 235.856 156.298 236.374L163.768 231.709C163.768 231.709 171.239 236.374 175.721 244.668C180.203 252.962 191.16 264.889 211.583 263.853C211.583 263.853 207.101 238.966 231.509 194.381C255.917 149.797 289.787 126.979 302.242 107.799C314.693 88.6146 313.697 79.8023 313.697 79.8023L307.223 77.7288Z" fill="#F1D23C"/>
<path d="M307.223 77.7288C307.223 77.7288 299.752 74.1002 296.764 65.2878C293.776 56.4755 286.305 55.4387 286.305 55.4387C286.305 55.4387 284.313 54.9203 285.309 59.0673C286.305 63.2143 283.815 69.9532 274.353 71.5083C264.89 73.0634 203.126 84.986 194.655 100.542C194.655 100.542 192.165 93.803 191.169 101.579V107.281C191.169 107.281 188.181 102.615 187.683 107.281C187.185 111.946 190.173 112.983 190.173 112.983L191.169 111.428C191.169 111.428 211.592 120.758 209.6 126.979C209.6 126.979 212.588 129.571 213.086 122.832C213.086 122.832 213.584 124.905 217.569 123.35L218.067 120.758C218.067 120.758 232.011 118.167 239.984 117.648C239.984 117.648 223.545 142.535 217.569 146.163C211.592 149.792 177.722 177.27 177.722 177.27L132.388 204.749C132.388 204.749 152.314 235.856 156.298 236.374L163.768 231.709C163.768 231.709 171.239 236.374 175.721 244.668C180.203 252.962 191.16 264.889 211.583 263.853C211.583 263.853 207.101 238.966 231.509 194.381C255.917 149.797 289.787 126.979 302.242 107.799C314.693 88.6146 313.697 79.8023 313.697 79.8023L307.223 77.7288Z" fill="url(#paint18_radial)"/>
<path d="M313.698 79.8023L307.223 77.7288C307.223 77.7288 299.753 74.1002 296.765 65.2878C293.777 56.4755 286.306 55.4387 286.306 55.4387C286.306 55.4387 284.314 54.9203 285.31 59.0673C286.306 63.2143 283.816 69.9532 274.354 71.5083C272.161 71.8693 267.168 72.7857 260.685 74.1742C260.867 77.775 261.116 81.3759 261.454 84.9675C263.201 103.606 267.479 121.601 274.251 138.573C286.133 126.34 296.485 116.681 302.252 107.799C314.694 88.6146 313.698 79.8023 313.698 79.8023Z" fill="url(#paint19_radial)"/>
<path d="M209.596 127.497C209.596 127.497 189.901 160.599 185.802 171.267C185.802 171.267 192.663 175.197 194.157 177.27C195.651 179.344 198.639 187.119 203.619 189.193C203.619 189.193 200.133 192.303 197.643 190.23C195.153 188.156 195.153 188.156 195.153 188.156L197.643 191.266C197.643 191.266 194.655 195.413 192.663 194.895C190.671 194.376 191.169 195.413 188.679 194.895C186.188 194.376 184.694 192.821 184.694 192.821C184.694 192.821 184.694 194.376 183.2 193.858C182.049 193.46 177.068 187.656 174.832 184.518C174.138 183.546 173.907 182.297 174.2 181.126L176.726 171.045C176.726 171.045 179.714 129.052 191.169 111.423C191.164 111.427 213.082 118.685 209.596 127.497Z" fill="#FFDE99"/>
<path d="M209.596 127.497C209.596 127.497 189.901 160.599 185.802 171.267C185.802 171.267 192.663 175.197 194.157 177.27C195.651 179.344 198.639 187.119 203.619 189.193C203.619 189.193 200.133 192.303 197.643 190.23C195.153 188.156 195.153 188.156 195.153 188.156L197.643 191.266C197.643 191.266 194.655 195.413 192.663 194.895C190.671 194.376 191.169 195.413 188.679 194.895C186.188 194.376 184.694 192.821 184.694 192.821C184.694 192.821 184.694 194.376 183.2 193.858C182.049 193.46 177.068 187.656 174.832 184.518C174.138 183.546 173.907 182.297 174.2 181.126L176.726 171.045C176.726 171.045 179.714 129.052 191.169 111.423C191.164 111.427 213.082 118.685 209.596 127.497Z" fill="url(#paint20_radial)"/>
<path d="M431.529 177.409H315.258C314.324 177.409 313.568 176.623 313.568 175.651V175.229C313.568 174.258 314.324 173.471 315.258 173.471H431.529C432.463 173.471 433.219 174.258 433.219 175.229V175.651C433.219 176.618 432.463 177.409 431.529 177.409Z" fill="#241921"/>
<path d="M431.53 177.409H362.615C361.681 177.409 360.925 176.623 360.925 175.651V175.229C360.925 174.258 361.681 173.471 362.615 173.471H431.53C432.463 173.471 433.219 174.258 433.219 175.229V175.651C433.219 176.618 432.463 177.409 431.53 177.409Z" fill="#0061FE"/>
<path d="M449.552 111.687H381.713C380.797 111.687 379.988 112.298 379.703 113.2L361.841 169.583C361.388 171.008 362.41 172.48 363.851 172.48H431.689C432.606 172.48 433.415 171.869 433.699 170.967L451.562 114.584C452.015 113.154 450.992 111.687 449.552 111.687Z" fill="#0061FE"/>
<path d="M352.956 176.424H347.42C347.029 176.424 346.718 176.095 346.718 175.692V175.516C346.718 175.109 347.033 174.785 347.42 174.785H352.956C353.348 174.785 353.659 175.114 353.659 175.516V175.692C353.663 176.095 353.348 176.424 352.956 176.424Z" stroke="#0061FE" stroke-width="0.385417" stroke-miterlimit="10"/>
<path d="M428.568 176.586H423.032C422.641 176.586 422.33 176.257 422.33 175.854V175.679C422.33 175.271 422.645 174.947 423.032 174.947H428.568C428.96 174.947 429.271 175.276 429.271 175.679V175.854C429.275 176.257 428.96 176.586 428.568 176.586Z" stroke="#0061FE" stroke-width="0.385417" stroke-miterlimit="10"/>
<path d="M341.435 176.586H335.899C335.508 176.586 335.197 176.257 335.197 175.854V175.679C335.197 175.271 335.512 174.947 335.899 174.947H341.435C341.827 174.947 342.138 175.276 342.138 175.679V175.854C342.138 176.257 341.822 176.586 341.435 176.586Z" stroke="#0061FE" stroke-width="0.385417" stroke-miterlimit="10"/>
<path d="M357.221 176.586H357.052C356.661 176.586 356.35 176.257 356.35 175.854V175.679C356.35 175.271 356.665 174.947 357.052 174.947H357.221C357.612 174.947 357.924 175.276 357.924 175.679V175.854C357.924 176.257 357.608 176.586 357.221 176.586Z" stroke="#0061FE" stroke-width="0.385417" stroke-miterlimit="10"/>
<path d="M450.797 112.108C450.45 111.844 450.023 111.687 449.552 111.687H381.714C380.797 111.687 379.988 112.298 379.704 113.2L362.05 168.921L450.797 112.108Z" fill="url(#paint21_linear)"/>
<path d="M439.395 115.991L417.927 129.793" stroke="white" stroke-width="0.385417" stroke-miterlimit="10"/>
<path d="M390.9 180.899L402.528 179.52C402.528 179.52 410.101 170.42 413.947 168.921C413.947 168.921 411.32 166.384 405.343 171.568C399.367 176.752 399.865 176.233 399.865 176.233H393.391L390.9 180.899Z" fill="#FFDE99"/>
<path d="M390.9 180.899L402.528 179.52C402.528 179.52 410.101 170.42 413.947 168.921C413.947 168.921 411.32 166.384 405.343 171.568C399.367 176.752 399.865 176.233 399.865 176.233H393.391L390.9 180.899Z" fill="url(#paint22_radial)"/>
<path d="M392.892 174.679L378.947 177.271H378.854C376.288 177.271 373.749 177.784 371.343 178.715C367.079 180.367 359.418 182.001 357.915 183.648C361.925 183.537 366.114 183.32 370.476 182.973C370.476 182.973 388.908 181.418 393.888 180.381C393.888 180.381 404.845 167.421 406.339 167.421C407.833 167.421 400.865 164.83 392.892 174.679Z" fill="#FFDE99"/>
<path d="M163.769 231.709C163.769 231.709 156.796 225.488 156.298 229.635C155.8 233.782 157.294 235.856 156.298 236.374L163.769 231.709Z" fill="url(#paint23_radial)"/>
<path d="M157.276 228.21L157.307 228.251C159.366 227.784 163.764 231.709 163.764 231.709C163.764 231.709 171.234 236.374 175.717 244.668C176.615 246.334 177.784 248.144 179.23 249.972L210.632 188.161L157.276 228.21Z" fill="url(#paint24_radial)"/>
<path d="M197.639 191.267L195.563 188.675C195.563 188.675 192.161 185.564 192.161 182.454C192.161 179.904 182.111 185.717 175.197 185.032C177.571 188.249 182.102 193.483 183.192 193.863C184.686 194.381 184.686 192.826 184.686 192.826C184.686 192.826 186.18 194.381 188.67 194.9C191.16 195.418 190.662 194.381 192.654 194.9C194.651 195.418 197.639 191.267 197.639 191.267Z" fill="url(#paint25_radial)"/>
<path d="M306.974 82.1348C306.974 82.1348 305.978 99.7641 276.545 127.645" stroke="white" stroke-width="0.385417" stroke-miterlimit="10"/>
<path d="M314.444 19.9209C314.444 19.9209 312.95 28.2149 306.974 32.3619" stroke="#0061FE" stroke-width="0.385417" stroke-miterlimit="10"/>
<path d="M310.958 21.9941C310.958 21.9941 308.467 28.733 299.005 33.3984" stroke="#0061FE" stroke-width="0.385417" stroke-miterlimit="10"/>
<path d="M368.987 347.32C368.987 347.32 363.01 358.206 355.54 362.871" stroke="#DEF4FF" stroke-width="0.385417" stroke-miterlimit="10"/>
<path d="M116.701 253.221C116.701 253.221 117.959 244.501 123.557 240.308" stroke="#DEF4FF" stroke-width="0.385417" stroke-miterlimit="10"/>
<path d="M2.60319 277.039C0.388743 280.08 0.477678 284.704 2.81218 287.647C5.50687 291.044 10.3982 291.947 12.9417 295.464C14.8805 298.144 14.9649 302.12 13.1418 304.888" stroke="#0061FE" stroke-width="0.385417" stroke-miterlimit="10"/>
<path d="M639.665 256.461C641.506 256.461 643 254.907 643 252.99C643 251.073 641.506 249.519 639.665 249.519C637.824 249.519 636.33 251.073 636.33 252.99C636.33 254.907 637.824 256.461 639.665 256.461Z" stroke="#0061FE" stroke-width="0.385417" stroke-miterlimit="10"/>
<path d="M60.7136 117.548L56.4199 118.751L57.5756 123.22L61.8693 122.017L60.7136 117.548Z" stroke="#FA404B" stroke-width="0.385417" stroke-miterlimit="10"/>
<path d="M413.552 227.303C413.552 227.303 429.56 208.789 452.682 218.972" stroke="#FA404B" stroke-width="0.385417" stroke-miterlimit="10"/>
<path d="M96.9482 294.876L89.8335 305.984" stroke="#FA404B" stroke-width="0.385417" stroke-miterlimit="10"/>
<path d="M156.534 15.7876L163.204 20.8788" stroke="#FA404B" stroke-width="0.385417" stroke-miterlimit="10"/>
<path d="M582.676 185.212C587.839 186.508 593.673 184.018 596.479 179.321C597.506 177.599 598.146 175.646 599.182 173.924C601.094 170.754 604.381 168.518 607.938 167.967" stroke="#0061FE" stroke-width="0.385417" stroke-miterlimit="10"/>
<defs>
<radialGradient id="paint0_radial" cx="0" cy="0" r="1" gradientUnits="userSpaceOnUse" gradientTransform="translate(450.415 30.8494) scale(185.367 192.94)">
<stop stop-color="#0061FE"/>
<stop offset="0.0281" stop-color="#106CFE" stop-opacity="0.9719"/>
<stop offset="0.1219" stop-color="#408BFE" stop-opacity="0.8781"/>
<stop offset="0.2211" stop-color="#6AA7FE" stop-opacity="0.7789"/>
<stop offset="0.3241" stop-color="#8EBFFF" stop-opacity="0.6759"/>
<stop offset="0.4318" stop-color="#ABD2FF" stop-opacity="0.5682"/>
<stop offset="0.546" stop-color="#C2E1FF" stop-opacity="0.454"/>
<stop offset="0.6696" stop-color="#D2ECFF" stop-opacity="0.3304"/>
<stop offset="0.8094" stop-color="#DBF2FF" stop-opacity="0.1906"/>
<stop offset="1" stop-color="#DEF4FF" stop-opacity="0"/>
</radialGradient>
<radialGradient id="paint1_radial" cx="0" cy="0" r="1" gradientUnits="userSpaceOnUse" gradientTransform="translate(453.563 53.538) scale(37.8362 39.3819)">
<stop stop-color="#FB8F8F"/>
<stop offset="1" stop-color="#F9C1DA" stop-opacity="0"/>
</radialGradient>
<radialGradient id="paint2_radial" cx="0" cy="0" r="1" gradientUnits="userSpaceOnUse" gradientTransform="translate(458.508 41.3289) scale(58.3586 60.7427)">
<stop stop-color="#FB8F8F"/>
<stop offset="1" stop-color="#F9C1DA" stop-opacity="0"/>
</radialGradient>
<radialGradient id="paint3_radial" cx="0" cy="0" r="1" gradientUnits="userSpaceOnUse" gradientTransform="translate(464.066 35.0808) scale(58.3586 60.7427)">
<stop stop-color="#FB8F8F"/>
<stop offset="1" stop-color="#F9C1DA" stop-opacity="0"/>
</radialGradient>
<radialGradient id="paint4_radial" cx="0" cy="0" r="1" gradientUnits="userSpaceOnUse" gradientTransform="translate(450.597 81.3568) scale(137.303 93.8543)">
<stop stop-color="#0061FE"/>
<stop offset="0.0281" stop-color="#106CFE" stop-opacity="0.9719"/>
<stop offset="0.1219" stop-color="#408BFE" stop-opacity="0.8781"/>
<stop offset="0.2211" stop-color="#6AA7FE" stop-opacity="0.7789"/>
<stop offset="0.3241" stop-color="#8EBFFF" stop-opacity="0.6759"/>
<stop offset="0.4318" stop-color="#ABD2FF" stop-opacity="0.5682"/>
<stop offset="0.546" stop-color="#C2E1FF" stop-opacity="0.454"/>
<stop offset="0.6696" stop-color="#D2ECFF" stop-opacity="0.3304"/>
<stop offset="0.8094" stop-color="#DBF2FF" stop-opacity="0.1906"/>
<stop offset="1" stop-color="#DEF4FF" stop-opacity="0"/>
</radialGradient>
<radialGradient id="paint5_radial" cx="0" cy="0" r="1" gradientUnits="userSpaceOnUse" gradientTransform="translate(450.597 89.2245) scale(137.303 93.8543)">
<stop stop-color="#0061FE"/>
<stop offset="0.0281" stop-color="#106CFE" stop-opacity="0.9719"/>
<stop offset="0.1219" stop-color="#408BFE" stop-opacity="0.8781"/>
<stop offset="0.2211" stop-color="#6AA7FE" stop-opacity="0.7789"/>
<stop offset="0.3241" stop-color="#8EBFFF" stop-opacity="0.6759"/>
<stop offset="0.4318" stop-color="#ABD2FF" stop-opacity="0.5682"/>
<stop offset="0.546" stop-color="#C2E1FF" stop-opacity="0.454"/>
<stop offset="0.6696" stop-color="#D2ECFF" stop-opacity="0.3304"/>
<stop offset="0.8094" stop-color="#DBF2FF" stop-opacity="0.1906"/>
<stop offset="1" stop-color="#DEF4FF" stop-opacity="0"/>
</radialGradient>
<radialGradient id="paint6_radial" cx="0" cy="0" r="1" gradientUnits="userSpaceOnUse" gradientTransform="translate(105.937 218.042) scale(61.9995 64.5324)">
<stop stop-color="#FA404B"/>
<stop offset="0.025" stop-color="#FA484F" stop-opacity="0.975"/>
<stop offset="0.1916" stop-color="#FC7565" stop-opacity="0.8084"/>
<stop offset="0.3589" stop-color="#FD9B78" stop-opacity="0.6411"/>
<stop offset="0.5244" stop-color="#FEB886" stop-opacity="0.4756"/>
<stop offset="0.6876" stop-color="#FECD91" stop-opacity="0.3124"/>
<stop offset="0.8474" stop-color="#FFDA97" stop-opacity="0.1526"/>
<stop offset="1" stop-color="#FFDE99" stop-opacity="0"/>
</radialGradient>
<radialGradient id="paint7_radial" cx="0" cy="0" r="1" gradientUnits="userSpaceOnUse" gradientTransform="translate(203.208 198.658) scale(117.846 122.66)">
<stop offset="0.00534759" stop-color="#241921"/>
<stop offset="1" stop-color="#0061FE" stop-opacity="0"/>
</radialGradient>
<radialGradient id="paint8_radial" cx="0" cy="0" r="1" gradientUnits="userSpaceOnUse" gradientTransform="translate(354.588 368.403) scale(42.1013 43.8213)">
<stop stop-color="#FA404B"/>
<stop offset="0.025" stop-color="#FA484F" stop-opacity="0.975"/>
<stop offset="0.1916" stop-color="#FC7565" stop-opacity="0.8084"/>
<stop offset="0.3589" stop-color="#FD9B78" stop-opacity="0.6411"/>
<stop offset="0.5244" stop-color="#FEB886" stop-opacity="0.4756"/>
<stop offset="0.6876" stop-color="#FECD91" stop-opacity="0.3124"/>
<stop offset="0.8474" stop-color="#FFDA97" stop-opacity="0.1526"/>
<stop offset="1" stop-color="#FFDE99" stop-opacity="0"/>
</radialGradient>
<radialGradient id="paint9_radial" cx="0" cy="0" r="1" gradientUnits="userSpaceOnUse" gradientTransform="translate(149.225 143.255) scale(203.782 212.107)">
<stop offset="0.00534759" stop-color="#241921"/>
<stop offset="1" stop-color="#0061FE" stop-opacity="0"/>
</radialGradient>
<radialGradient id="paint10_radial" cx="0" cy="0" r="1" gradientUnits="userSpaceOnUse" gradientTransform="translate(286.259 387.657) scale(124.852 129.953)">
<stop offset="0.00534759" stop-color="#241921"/>
<stop offset="1" stop-color="#0061FE" stop-opacity="0"/>
</radialGradient>
<radialGradient id="paint11_radial" cx="0" cy="0" r="1" gradientUnits="userSpaceOnUse" gradientTransform="translate(395.739 172.528) scale(26.7417 27.8342)">
<stop stop-color="#FA404B"/>
<stop offset="0.025" stop-color="#FA484F"/>
<stop offset="0.1916" stop-color="#FC7565"/>
<stop offset="0.3589" stop-color="#FD9B78"/>
<stop offset="0.5244" stop-color="#FEB886"/>
<stop offset="0.6876" stop-color="#FECD91"/>
<stop offset="0.8474" stop-color="#FFDA97"/>
<stop offset="1" stop-color="#FFDE99"/>
</radialGradient>
<radialGradient id="paint12_radial" cx="0" cy="0" r="1" gradientUnits="userSpaceOnUse" gradientTransform="translate(347.898 175.393) rotate(4.79296) scale(25.3543 12.7143)">
<stop stop-color="#FA404B"/>
<stop offset="0.025" stop-color="#FA484F" stop-opacity="0.975"/>
<stop offset="0.1916" stop-color="#FC7565" stop-opacity="0.8084"/>
<stop offset="0.3589" stop-color="#FD9B78" stop-opacity="0.6411"/>
<stop offset="0.5244" stop-color="#FEB886" stop-opacity="0.4756"/>
<stop offset="0.6876" stop-color="#FECD91" stop-opacity="0.3124"/>
<stop offset="0.8474" stop-color="#FFDA97" stop-opacity="0.1526"/>
<stop offset="1" stop-color="#FFDE99" stop-opacity="0"/>
</radialGradient>
<radialGradient id="paint13_radial" cx="0" cy="0" r="1" gradientUnits="userSpaceOnUse" gradientTransform="translate(280.219 101.605) scale(114.409 119.083)">
<stop stop-color="#FB8F8F"/>
<stop offset="1" stop-color="#F9C1DA" stop-opacity="0"/>
</radialGradient>
<radialGradient id="paint14_radial" cx="0" cy="0" r="1" gradientUnits="userSpaceOnUse" gradientTransform="translate(318.914 68.5984) scale(28.5173 29.6823)">
<stop stop-color="#FA404B"/>
<stop offset="0.025" stop-color="#FA484F" stop-opacity="0.975"/>
<stop offset="0.1916" stop-color="#FC7565" stop-opacity="0.8084"/>
<stop offset="0.3589" stop-color="#FD9B78" stop-opacity="0.6411"/>
<stop offset="0.5244" stop-color="#FEB886" stop-opacity="0.4756"/>
<stop offset="0.6876" stop-color="#FECD91" stop-opacity="0.3124"/>
<stop offset="0.8474" stop-color="#FFDA97" stop-opacity="0.1526"/>
<stop offset="1" stop-color="#FFDE99" stop-opacity="0"/>
</radialGradient>
<radialGradient id="paint15_radial" cx="0" cy="0" r="1" gradientUnits="userSpaceOnUse" gradientTransform="translate(295.948 29.4369) scale(37.163 38.6812)">
<stop stop-color="#FA404B"/>
<stop offset="0.025" stop-color="#FA484F" stop-opacity="0.975"/>
<stop offset="0.1916" stop-color="#FC7565" stop-opacity="0.8084"/>
<stop offset="0.3589" stop-color="#FD9B78" stop-opacity="0.6411"/>
<stop offset="0.5244" stop-color="#FEB886" stop-opacity="0.4756"/>
<stop offset="0.6876" stop-color="#FECD91" stop-opacity="0.3124"/>
<stop offset="0.8474" stop-color="#FFDA97" stop-opacity="0.1526"/>
<stop offset="1" stop-color="#FFDE99" stop-opacity="0"/>
</radialGradient>
<radialGradient id="paint16_radial" cx="0" cy="0" r="1" gradientUnits="userSpaceOnUse" gradientTransform="translate(328.414 34.1515) scale(27.7095 28.8415)">
<stop stop-color="#FA404B"/>
<stop offset="0.025" stop-color="#FA484F" stop-opacity="0.975"/>
<stop offset="0.1916" stop-color="#FC7565" stop-opacity="0.8084"/>
<stop offset="0.3589" stop-color="#FD9B78" stop-opacity="0.6411"/>
<stop offset="0.5244" stop-color="#FEB886" stop-opacity="0.4756"/>
<stop offset="0.6876" stop-color="#FECD91" stop-opacity="0.3124"/>
<stop offset="0.8474" stop-color="#FFDA97" stop-opacity="0.1526"/>
<stop offset="1" stop-color="#FFDE99" stop-opacity="0"/>
</radialGradient>
<radialGradient id="paint17_radial" cx="0" cy="0" r="1" gradientUnits="userSpaceOnUse" gradientTransform="translate(367.173 23.1496) scale(79.1904 82.4256)">
<stop stop-color="#0061FE"/>
<stop offset="0.9947" stop-color="#241921"/>
</radialGradient>
<radialGradient id="paint18_radial" cx="0" cy="0" r="1" gradientUnits="userSpaceOnUse" gradientTransform="translate(174.517 108.677) scale(135.997 141.553)">
<stop stop-color="#FB8F8F"/>
<stop offset="1" stop-color="#F9C1DA" stop-opacity="0"/>
</radialGradient>
<radialGradient id="paint19_radial" cx="0" cy="0" r="1" gradientUnits="userSpaceOnUse" gradientTransform="translate(319.858 77.2428) scale(67.9145 70.689)">
<stop stop-color="white"/>
<stop offset="1" stop-color="#F1D23C" stop-opacity="0"/>
</radialGradient>
<radialGradient id="paint20_radial" cx="0" cy="0" r="1" gradientUnits="userSpaceOnUse" gradientTransform="translate(171.12 101.473) scale(75.3307 78.4081)">
<stop stop-color="#FA404B"/>
<stop offset="0.025" stop-color="#FA484F" stop-opacity="0.975"/>
<stop offset="0.1916" stop-color="#FC7565" stop-opacity="0.8084"/>
<stop offset="0.3589" stop-color="#FD9B78" stop-opacity="0.6411"/>
<stop offset="0.5244" stop-color="#FEB886" stop-opacity="0.4756"/>
<stop offset="0.6876" stop-color="#FECD91" stop-opacity="0.3124"/>
<stop offset="0.8474" stop-color="#FFDA97" stop-opacity="0.1526"/>
<stop offset="1" stop-color="#FFDE99" stop-opacity="0"/>
</radialGradient>
<linearGradient id="paint21_linear" x1="423.566" y1="57.1004" x2="400.204" y2="162.022" gradientUnits="userSpaceOnUse">
<stop offset="0.1791" stop-color="#F9C1DA"/>
<stop offset="1" stop-color="#EECFF8" stop-opacity="0"/>
</linearGradient>
<radialGradient id="paint22_radial" cx="0" cy="0" r="1" gradientUnits="userSpaceOnUse" gradientTransform="translate(394.889 175.082) scale(10.6122 11.0458)">
<stop stop-color="#FA404B"/>
<stop offset="0.025" stop-color="#FA484F" stop-opacity="0.975"/>
<stop offset="0.1916" stop-color="#FC7565" stop-opacity="0.8084"/>
<stop offset="0.3589" stop-color="#FD9B78" stop-opacity="0.6411"/>
<stop offset="0.5244" stop-color="#FEB886" stop-opacity="0.4756"/>
<stop offset="0.6876" stop-color="#FECD91" stop-opacity="0.3124"/>
<stop offset="0.8474" stop-color="#FFDA97" stop-opacity="0.1526"/>
<stop offset="1" stop-color="#FFDE99" stop-opacity="0"/>
</radialGradient>
<radialGradient id="paint23_radial" cx="0" cy="0" r="1" gradientUnits="userSpaceOnUse" gradientTransform="translate(154.315 228.578) scale(17.2892 17.9954)">
<stop stop-color="#FB8F8F"/>
<stop offset="1" stop-color="#F9C1DA" stop-opacity="0"/>
</radialGradient>
<radialGradient id="paint24_radial" cx="0" cy="0" r="1" gradientUnits="userSpaceOnUse" gradientTransform="translate(159.417 218.107) scale(34.2892 35.69)">
<stop stop-color="white"/>
<stop offset="1" stop-color="#F1D23C" stop-opacity="0"/>
</radialGradient>
<radialGradient id="paint25_radial" cx="0" cy="0" r="1" gradientUnits="userSpaceOnUse" gradientTransform="translate(180.18 181.238) scale(17.814 18.5418)">
<stop stop-color="#FA404B"/>
<stop offset="0.025" stop-color="#FA484F" stop-opacity="0.975"/>
<stop offset="0.1916" stop-color="#FC7565" stop-opacity="0.8084"/>
<stop offset="0.3589" stop-color="#FD9B78" stop-opacity="0.6411"/>
<stop offset="0.5244" stop-color="#FEB886" stop-opacity="0.4756"/>
<stop offset="0.6876" stop-color="#FECD91" stop-opacity="0.3124"/>
<stop offset="0.8474" stop-color="#FFDA97" stop-opacity="0.1526"/>
<stop offset="1" stop-color="#FFDE99" stop-opacity="0"/>
</radialGradient>
</defs>
</svg>
